<svg preserveAspectRatio="none" width="100%" height="100%" overflow="visible" style="display: block;" viewBox="0 0 20 20" fill="none" xmlns="http://www.w3.org/2000/svg">
<g id="Frame" clip-path="url(#clip0_0_7)">
<path id="Vector" d="M11.1583 8.26908C10.5452 8.5134 9.97169 8.84729 9.45652 9.25986C8.94851 9.66708 8.5001 10.1435 8.12438 10.6753C7.7473 11.2085 7.45312 11.7957 7.25183 12.417C7.04364 13.0597 6.93909 13.7314 6.94211 14.4069C6.93985 15.0024 7.02284 15.5951 7.18856 16.167C7.34983 16.7205 7.57916 17.2519 7.87128 17.7489H7.37173C7.01982 17.7489 6.61074 17.7373 6.14449 17.714C5.67824 17.6906 5.19645 17.6584 4.69912 17.6174C4.20179 17.5763 3.70779 17.5291 3.21712 17.4758C2.72645 17.4225 2.2824 17.367 1.88498 17.3093C1.48423 17.2505 1.14453 17.1916 0.865891 17.1328C0.680277 17.1082 0.501092 17.0483 0.338031 16.9563C0.204817 16.8619 0.104906 16.57 0.0382994 16.0804C-0.0234962 15.4519 0.00397409 14.8179 0.119893 14.1971C0.155291 13.9337 0.258583 13.6841 0.419624 13.4728C0.575499 13.2804 0.763017 13.1159 0.974127 12.9865C1.20138 12.8447 1.44595 12.7328 1.70181 12.6535C1.96824 12.5713 2.24132 12.492 2.52107 12.4154C2.80082 12.3388 3.07058 12.2561 3.33035 12.1673C3.58116 12.0818 3.82228 11.9702 4.0497 11.8342C4.26586 11.7106 4.46464 11.5589 4.64084 11.383C4.7653 11.2573 4.86675 11.1108 4.94057 10.95C5.00093 10.8107 5.0321 10.6605 5.03216 10.5087C5.03216 10.3555 5.02605 10.1846 5.01384 9.99587C5.00193 9.7514 4.8978 9.52053 4.72243 9.34978C4.55259 9.19104 4.36442 9.02896 4.15794 8.86355C4.04945 8.76612 3.96021 8.6492 3.89484 8.51886C3.81634 8.37257 3.74628 8.22191 3.68503 8.0676C3.62397 7.89109 3.56347 7.70848 3.50353 7.51976C3.41229 7.49328 3.32616 7.45162 3.24875 7.39653C3.16145 7.32236 3.08219 7.2392 3.0123 7.14842C2.91171 7.01008 2.83774 6.85424 2.79416 6.68883C2.73425 6.51434 2.7066 6.33039 2.71257 6.14599C2.72193 5.99342 2.75918 5.84385 2.82247 5.70472C2.87627 5.56668 2.95661 5.44053 3.05892 5.33338C3.0592 4.88501 3.08366 4.43699 3.13219 3.99125C3.18789 3.57829 3.27303 3.16984 3.38696 2.76902C3.50109 2.34878 3.69252 1.9535 3.95146 1.60339C4.36516 1.02066 4.94061 0.57199 5.60664 0.312885C5.89662 0.198656 6.19896 0.11874 6.5075 0.0747649C6.79484 0.0330868 7.08472 0.0113875 7.37506 0.00982308C7.72678 0.0098317 8.07745 0.0483604 8.42078 0.12472C8.75384 0.19757 9.0794 0.301258 9.39325 0.434442C9.67745 0.554 9.94863 0.702424 10.2025 0.877379C10.4097 1.01726 10.5964 1.1854 10.757 1.37693C11.0664 1.74371 11.3011 2.16738 11.4481 2.62415C11.5861 3.04849 11.6892 3.48345 11.7561 3.92465C11.8172 4.39955 11.8478 4.87788 11.8477 5.3567C11.9324 5.41553 12.001 5.4945 12.0475 5.58649C12.1024 5.68608 12.1423 5.79326 12.1658 5.90454C12.1967 6.0621 12.1995 6.2239 12.1741 6.38244C12.1623 6.59369 12.1097 6.80066 12.0192 6.9919C11.9539 7.12224 11.8646 7.23916 11.7561 7.33659C11.6562 7.42588 11.538 7.49235 11.4098 7.53141C11.3853 7.60246 11.3609 7.67906 11.3365 7.76121L11.2499 8.00266C11.2255 8.08481 11.195 8.17306 11.1583 8.26742V8.26908Z" fill="var(--fill-0, black)"/>
<path id="Vector_2" d="M19.9338 13.7675C19.8995 13.6323 19.8299 13.5087 19.7322 13.4092C19.6345 13.3098 19.5121 13.238 19.3776 13.2013L19.1828 13.1597C18.7169 13.0249 18.319 12.7193 18.0688 12.3038C17.8214 11.8899 17.7472 11.395 17.8623 10.9267L17.9223 10.7502C17.9566 10.6164 17.9539 10.4758 17.9143 10.3434C17.8747 10.2111 17.7997 10.0921 17.6975 9.9992C17.4781 9.83532 17.2459 9.68942 17.0031 9.56293C16.7669 9.42475 16.5216 9.30291 16.2687 9.19825C16.1338 9.15816 15.9906 9.15412 15.8536 9.18655C15.7166 9.21898 15.5905 9.28674 15.4878 9.38309L15.3546 9.52463C14.9914 9.85553 14.5179 10.039 14.0266 10.039C13.5353 10.039 13.0617 9.85553 12.6986 9.52463L12.5687 9.38975C12.466 9.2934 12.3399 9.22564 12.2029 9.19321C12.0659 9.16078 11.9227 9.16482 11.7878 9.20491C11.5335 9.30873 11.287 9.4306 11.0501 9.56959C10.8075 9.69839 10.5753 9.84593 10.3557 10.0109C10.253 10.1027 10.1776 10.2211 10.138 10.353C10.0983 10.485 10.0959 10.6253 10.1309 10.7585L10.1875 10.9384C10.3027 11.4067 10.2285 11.9015 9.98105 12.3155C9.73143 12.7359 9.32953 13.0442 8.85872 13.1764L8.67223 13.218C8.53778 13.2548 8.4155 13.3266 8.31781 13.4261C8.22012 13.5255 8.15051 13.6491 8.11606 13.7841C8.05845 14.3171 8.05845 14.8547 8.11606 15.3877C8.14971 15.5232 8.21905 15.6471 8.31686 15.7467C8.41468 15.8463 8.53739 15.9178 8.67223 15.9539L8.85373 15.9955C9.32539 16.1285 9.72856 16.4364 9.98105 16.8564C10.2285 17.2703 10.3027 17.7652 10.1875 18.2335L10.1359 18.41C10.1015 18.5438 10.1043 18.6844 10.1439 18.8167C10.1835 18.9491 10.2585 19.0681 10.3607 19.161C10.5801 19.3248 10.8123 19.4707 11.0551 19.5973C11.29 19.7378 11.5355 19.8598 11.7894 19.9619C11.9244 20.002 12.0675 20.0061 12.2046 19.9736C12.3416 19.9412 12.4677 19.8734 12.5704 19.7771L12.7003 19.6422C13.0639 19.309 13.5392 19.1241 14.0324 19.1241C14.5256 19.1241 15.001 19.309 15.3646 19.6422L15.4944 19.7771C15.5971 19.8734 15.7233 19.9412 15.8603 19.9736C15.9973 20.0061 16.1404 20.002 16.2754 19.9619C16.5297 19.8581 16.7762 19.7362 17.0131 19.5973C17.2547 19.4686 17.4867 19.3228 17.7075 19.161C17.8101 19.0684 17.8854 18.9494 17.9251 18.817C17.9647 18.6845 17.9672 18.5438 17.9323 18.41L17.8773 18.2302C17.7635 17.7634 17.8377 17.2706 18.0838 16.8581C18.3352 16.4371 18.7388 16.1289 19.2111 15.9972L19.3926 15.9555C19.5274 15.9189 19.65 15.8473 19.748 15.7478C19.846 15.6483 19.9159 15.5246 19.9504 15.3894C19.9864 15.124 20.0009 14.8561 19.9937 14.5884C19.9912 14.3138 19.9712 14.0396 19.9338 13.7675ZM14.0241 16.8814C13.5706 16.8683 13.1309 16.7218 12.7602 16.4602C12.3894 16.1986 12.104 15.8336 11.9396 15.4107C11.7752 14.9878 11.7391 14.5258 11.8358 14.0825C11.9325 13.6392 12.1577 13.2342 12.4833 12.9182C12.8089 12.6022 13.2204 12.3892 13.6664 12.3058C14.1124 12.2224 14.5731 12.2723 14.9909 12.4493C15.4087 12.6262 15.7651 12.9224 16.0154 13.3008C16.2658 13.6792 16.3991 14.123 16.3986 14.5768C16.3881 15.1969 16.1323 15.7875 15.6873 16.2194C15.2423 16.6514 14.6442 16.8894 14.0241 16.8814Z" fill="var(--fill-0, black)"/>
</g>
<defs>
<clipPath id="clip0_0_7">
<rect width="20" height="20" fill="white"/>
</clipPath>
</defs>
</svg>
