<svg preserveAspectRatio="none" width="100%" height="100%" overflow="visible" style="display: block;" viewBox="0 0 20 20" fill="none" xmlns="http://www.w3.org/2000/svg">
<g id="Frame" clip-path="url(#clip0_0_14)">
<path id="Vector" d="M18.75 12.1875H13.75C13.2375 12.1875 12.8125 11.7625 12.8125 11.25C12.8125 10.7375 13.2375 10.3125 13.75 10.3125H18.75C19.2625 10.3125 19.6875 10.7375 19.6875 11.25C19.6875 11.7625 19.2625 12.1875 18.75 12.1875ZM18.75 15.9375H13.75C13.2375 15.9375 12.8125 15.5125 12.8125 15C12.8125 14.4875 13.2375 14.0625 13.75 14.0625H18.75C19.2625 14.0625 19.6875 14.4875 19.6875 15C19.6875 15.5125 19.2625 15.9375 18.75 15.9375ZM18.75 19.6875H13.75C13.2375 19.6875 12.8125 19.2625 12.8125 18.75C12.8125 18.2375 13.2375 17.8125 13.75 17.8125H18.75C19.2625 17.8125 19.6875 18.2375 19.6875 18.75C19.6875 19.2625 19.2625 19.6875 18.75 19.6875Z" fill="var(--fill-0, black)"/>
<path id="Vector_2" d="M12.1125 16.875C11.5875 16.4125 11.25 15.75 11.25 15C11.25 14.25 11.5875 13.5875 12.1125 13.125C11.5875 12.6625 11.25 12 11.25 11.25C11.25 10.65 11.475 10.1 11.825 9.6625C11.4375 9.5125 11.05 9.375 10.6375 9.275C11.6239 8.84357 12.4316 8.08548 12.9246 7.12832C13.4175 6.17117 13.5657 5.0734 13.3441 4.0198C13.1226 2.9662 12.5448 2.02111 11.708 1.34361C10.8713 0.6661 9.82664 0.297553 8.75 0.3C6.1625 0.3 4.0625 2.4 4.0625 4.9875C4.0625 6.9 5.2125 8.5375 6.8625 9.275C3.1125 10.1375 0.3125 13.5 0.3125 17.5C0.3125 17.925 0.35 18.3375 0.4125 18.75C0.4125 18.8 0.4125 18.85 0.425 18.9C0.425 18.9375 0.45 18.9625 0.4625 19C0.475 19.0625 0.5 19.125 0.525 19.175C0.55 19.2375 0.5875 19.2875 0.625 19.3375C0.6625 19.375 0.6875 19.4125 0.725 19.45C0.775 19.5 0.8375 19.5375 0.9 19.575C0.938309 19.5991 0.980658 19.616 1.025 19.625C1.1 19.65 1.1625 19.6625 1.2375 19.675C1.275 19.675 1.3 19.6875 1.325 19.6875H11.4125C11.3 19.4 11.225 19.0875 11.225 18.75C11.225 18 11.5625 17.3375 12.0875 16.875H12.1125Z" fill="var(--fill-0, black)"/>
</g>
<defs>
<clipPath id="clip0_0_14">
<rect width="20" height="20" fill="white"/>
</clipPath>
</defs>
</svg>
