<svg preserveAspectRatio="none" width="100%" height="100%" overflow="visible" style="display: block;" viewBox="0 0 20 20" fill="none" xmlns="http://www.w3.org/2000/svg">
<g id="Frame">
<path id="Vector" d="M18.301 1.4935H1.69898C0.761613 1.4935 0 2.51457 0 3.76997V13.6291C0 14.8845 0.761613 15.9056 1.69898 15.9056H3.1162C3.225 15.9056 3.32264 15.9753 3.35333 16.0785L4.06751 18.3355C4.11494 18.4861 4.2907 18.5531 4.4274 18.475L8.89664 15.9362C8.9357 15.9139 8.97754 15.9028 9.01939 15.9028H18.301C19.2384 15.9028 20 14.8817 20 13.6263V3.76997C19.9972 2.51178 19.2384 1.4935 18.301 1.4935ZM11.0531 12.1198H2.349C1.90822 12.1198 1.5846 11.7683 1.5846 11.2801C1.5846 10.7947 1.90543 10.4404 2.349 10.4404H11.0531C11.4939 10.4404 11.8175 10.7947 11.8175 11.2801C11.8175 11.7655 11.4967 12.1198 11.0531 12.1198ZM15.302 9.23238H2.46896C1.97238 9.23238 1.58739 8.85855 1.58739 8.38149C1.58739 7.90444 1.97517 7.53061 2.46896 7.53061H15.302C15.7986 7.53061 16.1836 7.90444 16.1836 8.38149C16.1836 8.85855 15.7958 9.23238 15.302 9.23238ZM15.302 6.384H2.46896C1.97238 6.384 1.58739 6.02133 1.58739 5.55265C1.58739 5.08396 1.97517 4.72129 2.46896 4.72129H15.302C15.7986 4.72129 16.1836 5.08675 16.1836 5.55265C16.1836 6.01854 15.7958 6.384 15.302 6.384Z" fill="var(--fill-0, black)"/>
</g>
</svg>
