<svg preserveAspectRatio="none" width="100%" height="100%" overflow="visible" style="display: block;" viewBox="0 0 20 20" fill="none" xmlns="http://www.w3.org/2000/svg">
<g id="Frame">
<path id="Vector" d="M18.5381 2.19344C18.4598 1.67281 18.1823 1.18305 17.7641 0.850625C17.3587 0.511641 16.8327 0.319199 16.2983 0.30377H4.33672C3.94049 0.290664 3.5377 0.358516 3.17746 0.524902C2.58666 0.785039 2.10096 1.29254 1.93547 1.91133C1.83924 2.20867 1.866 2.52373 1.86389 2.83207V19.1753C1.8458 19.5078 2.12559 19.8074 2.45006 19.873C2.66498 19.932 2.89092 19.8643 3.07664 19.7526C5.30564 18.5063 7.53893 17.2662 9.76795 16.0194C10.0454 15.8663 10.4035 15.8772 10.6743 16.0392C12.8227 17.2378 14.9711 18.4318 17.117 19.6346C17.3073 19.7309 17.482 19.873 17.7035 19.8926C18.0728 19.943 18.4396 19.696 18.5381 19.346C18.5449 19.276 18.5516 19.2058 18.5516 19.1339V3.3766C18.5474 2.98305 18.5651 2.58717 18.5381 2.19344ZM14.5437 8.67582C14.5483 8.78707 14.5033 8.90742 14.4005 8.96432C14.302 9.02773 14.179 9.00807 14.0691 9.01248C13.1115 9.01465 12.1536 9.00807 11.1979 9.01465C11.2003 9.97682 11.1979 10.9413 11.2003 11.9037C11.2225 12.0742 11.0414 12.2099 10.8779 12.2032H9.55084C9.37863 12.212 9.20406 12.0807 9.21078 11.9037C9.2085 10.9392 9.21078 9.97471 9.21078 9.01039C8.21031 9.01248 7.2123 9.01039 6.21201 9.01039C6.05539 9.01906 5.89201 8.91186 5.87853 8.75449C5.8741 8.3083 5.87854 7.86211 5.87625 7.41592C5.86064 7.25414 6.00609 7.09658 6.17395 7.10758H9.20852C9.20852 6.14539 9.20621 5.18531 9.20852 4.22311C9.19734 4.0567 9.34959 3.90805 9.51969 3.91246C9.98061 3.91018 10.4438 3.91018 10.9072 3.91246C11.0548 3.91246 11.207 4.03279 11.1979 4.18342V7.10334C12.2163 7.10758 13.2367 7.10334 14.2548 7.10545C14.4207 7.09871 14.5525 7.25855 14.5437 7.41377C14.5458 7.83588 14.5437 8.25566 14.5437 8.67582Z" fill="var(--fill-0, black)"/>
</g>
</svg>
