<svg preserveAspectRatio="none" width="100%" height="100%" overflow="visible" style="display: block;" viewBox="0 0 18.5714 20" fill="none" xmlns="http://www.w3.org/2000/svg">
<g id="Group 9105">
<path id="Vector" d="M6.58857 12.1426C6.92929 11.3711 7.17643 10.5997 7.85714 10.0147C3.46429 9.88186 0 8.81829 0 7.14258V8.97829C0 10.4397 2.93857 11.7426 6.58857 12.1426Z" fill="var(--fill-0, black)"/>
<path id="Vector_2" d="M6.90643 15.7143C6.75071 15.1743 6.62643 14.635 6.62643 14.0643C6.62643 13.795 6.68857 13.555 6.71929 13.2857C3.205 12.895 0.0314286 11.7857 0.0314286 10.1664V12.2357C-0.0314286 14.0643 2.55 15.2043 6.90643 15.7143ZM8.92857 8.57714C9.115 8.57714 9.30214 8.54714 9.48857 8.54714C10.7957 7.79714 12.4129 7.34714 14.1243 7.34714C14.5286 7.34714 14.9329 7.40714 15.3371 7.43714C16.8929 6.77857 17.8571 5.87857 17.8571 4.88857V3.65857C17.8571 1.61929 13.875 0 8.92857 0C4.01286 0 0 1.65 0 3.65857V4.88857C0 6.92714 4.01286 8.57714 8.92857 8.57714ZM7.17143 17.3071C3.31 17.0086 0 15.9907 0 14.2857V16.35C0 18.3843 3.92286 20 8.79571 20C8.94857 20 9.13214 19.97 9.28571 19.97C8.18214 19.3414 7.75357 18.3243 7.17143 17.3071ZM13.2143 8.57143C16.1607 8.57143 18.5714 11.1307 18.5714 14.2857C18.5714 17.4407 16.1907 20 13.2143 20C10.2679 20 7.85714 17.4407 7.85714 14.2857C7.85714 11.1307 10.2379 8.57143 13.2143 8.57143ZM17.1429 15H11.4286V16.6329H15V17.8571L17.1429 15ZM12.8571 11.4286L10 14.2857H15.7143V12.6529H12.8571V11.4286Z" fill="var(--fill-0, black)"/>
</g>
</svg>
