<svg preserveAspectRatio="none" width="100%" height="100%" overflow="visible" style="display: block;" viewBox="0 0 20 20" fill="none" xmlns="http://www.w3.org/2000/svg">
<g id="Frame" clip-path="url(#clip0_0_79)">
<path id="Vector" d="M16.6686 14.0293C15.0265 14.0293 13.6952 15.3659 13.6952 17.0142C13.6952 18.6638 15.0265 20 16.6686 20C18.3107 20 19.6419 18.6638 19.6419 17.0142C19.6419 15.3659 18.3107 14.0293 16.6686 14.0293ZM18.6314 16.2363C18.6314 16.2363 16.4921 18.3476 16.4818 18.3583C16.2381 18.5991 16.1106 18.5607 16.0022 18.4513L14.7232 17.167C14.6145 17.0582 14.6208 16.875 14.737 16.7585C14.8532 16.6419 15.035 16.6355 15.1437 16.7449L16.1902 17.7956L18.2162 15.8092C18.3334 15.6941 18.5217 15.6966 18.6367 15.8141C18.7512 15.9322 18.749 16.1212 18.6314 16.2363ZM6.80331 2.02253H11.3587C11.839 2.02253 12.2435 1.56927 12.2435 1.0102C12.2435 0.451468 11.8397 0 11.3331 0H6.80331C6.29753 0 5.89329 0.451437 5.89329 1.0102C5.89332 1.5693 6.29861 2.02253 6.80331 2.02253ZM16.3251 13.1008C16.8554 13.1008 17.3602 13.2113 17.8177 13.4105V3.40498C17.8177 2.03357 17.081 1.0834 15.538 1.0834H13.485C13.5056 1.19317 13.5177 1.30541 13.5177 1.41873C13.5187 2.26872 12.9042 3.10522 12.1736 3.10522H5.86634C5.0975 3.10522 4.48247 2.26872 4.48247 1.41873C4.48356 1.30541 4.49509 1.19317 4.5162 1.0834H2.43811C0.768161 1.0834 0.358052 2.03357 0.358052 3.40498V16.9879C0.358052 18.4613 0.945379 19.2861 2.56454 19.2861H13.4402C12.896 18.6318 12.5685 17.79 12.5685 16.8714C12.5685 14.7891 14.2508 13.1008 16.3251 13.1008ZM4.74158 6.24087H13.6434C13.9723 6.24087 14.2508 6.5481 14.2753 6.90331C14.2753 7.23434 13.929 7.58955 13.6004 7.58955H4.67357C4.34411 7.58955 4.1349 7.23437 4.1349 6.90331C4.1349 6.5719 4.41286 6.24087 4.74158 6.24087ZM8.75017 15.2046H4.67357C4.34411 15.2046 4.1349 14.8498 4.1349 14.5184C4.1349 14.1877 4.41286 13.8567 4.74158 13.8567H8.79314C9.12241 13.8567 9.40053 14.1632 9.42504 14.5184C9.42504 14.8498 9.0791 15.2046 8.75017 15.2046ZM4.63697 11.4563C4.30788 11.4563 3.97985 11.051 3.97985 10.7199C3.97985 10.3903 4.25743 10.1079 4.58689 10.1079H13.4885C13.8174 10.1079 14.0952 10.3648 14.1204 10.7199C14.1204 11.051 13.8934 11.4563 13.5642 11.4563H4.63697Z" fill="var(--fill-0, black)"/>
</g>
<defs>
<clipPath id="clip0_0_79">
<rect width="20" height="20" fill="white"/>
</clipPath>
</defs>
</svg>
