<svg preserveAspectRatio="none" width="100%" height="100%" overflow="visible" style="display: block;" viewBox="0 0 16.6632 20" fill="none" xmlns="http://www.w3.org/2000/svg">
<g id="Group 9104">
<path id="Vector" d="M15.6829 3.87171L15.6815 3.87078L11.6771 7.90395L8.91902 7.77281L8.78837 5.01776L13.7329 0.0419768C13.7324 0.0419768 13.7324 0.041721 13.732 0.041721C13.5985 0.0155814 13.4614 0 13.3204 0H2.39421C2.25273 0 2.11612 0.0155814 1.98266 0.041721C1.8557 0.0638141 1.73433 0.0997444 1.6147 0.141233C1.61424 0.141233 1.61424 0.141465 1.61379 0.141465C0.67756 0.466629 0 1.34775 0 2.39208V17.608C0.000232559 18.9267 1.07351 20 2.39329 20H13.3214C14.4761 20 15.4425 19.1783 15.6657 18.0892C15.6978 17.9339 15.7145 17.7725 15.7145 17.6079V3.84006L15.6829 3.87171ZM3.05877 8.53665H6.47302C6.7362 8.53665 6.94923 8.75009 6.94923 9.01283C6.94923 9.2756 6.73623 9.48905 6.47302 9.48905H3.05877C2.79557 9.48905 2.58256 9.2756 2.58256 9.01283C2.58256 8.75009 2.79557 8.53665 3.05877 8.53665ZM12.8392 16.1905H3.05875C2.79554 16.1905 2.58254 15.9775 2.58254 15.7143C2.58254 15.4512 2.79552 15.2382 3.05875 15.2382H12.8392C13.1024 15.2382 13.3154 15.4512 13.3154 15.7143C13.3154 15.9776 13.1024 16.1905 12.8392 16.1905ZM12.8392 12.8554H3.05875C2.79554 12.8554 2.58254 12.6424 2.58254 12.3792C2.58254 12.116 2.79552 11.903 3.05875 11.903H12.8392C13.1024 11.903 13.3154 12.116 13.3154 12.3792C13.3154 12.6424 13.1024 12.8554 12.8392 12.8554ZM16.6344 1.1327C16.6018 1.04284 16.5069 0.886002 16.4102 0.789397L15.8155 0.197861C15.6583 0.0385816 15.4904 0.00465123 15.3779 0.00441867C15.2658 0.00465123 15.0989 0.038256 14.9389 0.199512L14.4221 0.714537L14.3683 0.767792L15.9066 2.30633L15.96 2.25261L16.4823 1.73154C16.5981 1.61272 16.6632 1.45519 16.6632 1.29535V1.21163L16.6344 1.1327ZM15.2765 0.535373C15.3123 0.499094 15.3448 0.480722 15.3779 0.480722C15.4104 0.480955 15.4431 0.499117 15.4794 0.535838C15.4067 0.462257 15.3481 0.463071 15.2765 0.535373Z" fill="var(--fill-0, black)"/>
<path id="Vector_2" d="M9.90575 5.24473L9.7574 5.3938L9.76766 5.60326L9.80763 6.43217L9.82854 6.86373L10.2601 6.88454L11.086 6.92454L11.2981 6.93499L11.4473 6.78443L15.228 2.97574L13.6892 1.43709L9.90575 5.24473Z" fill="var(--fill-0, black)"/>
</g>
</svg>
