<svg preserveAspectRatio="none" width="100%" height="100%" overflow="visible" style="display: block;" viewBox="0 0 20 20" fill="none" xmlns="http://www.w3.org/2000/svg">
<g id="Frame" clip-path="url(#clip0_0_12)">
<path id="Vector" d="M17.6946 19.2343H2.30531C1.89716 19.2343 1.50573 19.0722 1.21713 18.7836C0.928525 18.495 0.766389 18.1035 0.766389 17.6954V5.384C0.766389 4.97585 0.928525 4.58442 1.21713 4.29582C1.50573 4.00721 1.89716 3.84508 2.30531 3.84508H3.07477V4.61454C3.07477 4.81663 3.11458 5.01675 3.19192 5.20346C3.26926 5.39017 3.38261 5.55982 3.52551 5.70272C3.66842 5.84562 3.83807 5.95898 4.02478 6.03632C4.21149 6.11366 4.4116 6.15346 4.6137 6.15346C4.81579 6.15346 5.01591 6.11366 5.20262 6.03632C5.38933 5.95898 5.55898 5.84562 5.70188 5.70272C5.84478 5.55982 5.95814 5.39017 6.03548 5.20346C6.11282 5.01675 6.15262 4.81663 6.15262 4.61454V3.84508H13.8472V4.61454C13.8472 5.02269 14.0094 5.41412 14.298 5.70272C14.5866 5.99133 14.978 6.15346 15.3862 6.15346C15.7943 6.15346 16.1857 5.99133 16.4743 5.70272C16.763 5.41412 16.9251 5.02269 16.9251 4.61454V3.84508H17.6946C17.8966 3.84508 18.0968 3.88488 18.2835 3.96222C18.4702 4.03956 18.6398 4.15291 18.7827 4.29582C18.9256 4.43872 19.039 4.60837 19.1163 4.79508C19.1937 4.98179 19.2335 5.18191 19.2335 5.384V17.6954C19.2335 17.8975 19.1937 18.0976 19.1163 18.2843C19.039 18.471 18.9256 18.6407 18.7827 18.7836C18.6398 18.9265 18.4702 19.0398 18.2835 19.1172C18.0968 19.1945 17.8966 19.2343 17.6946 19.2343ZM3.07477 16.9259H13.8472V15.387H3.07477V16.9259ZM3.07477 13.0786H10.7694V11.5397H3.07477V13.0786ZM16.9251 7.69239H3.07477V9.23131H16.9251V7.69239ZM15.3862 5.384C15.1821 5.384 14.9864 5.30293 14.8421 5.15863C14.6978 5.01433 14.6167 4.81861 14.6167 4.61454V1.53669C14.6167 1.43563 14.6366 1.33556 14.6752 1.24219C14.7139 1.14883 14.7706 1.06399 14.842 0.992523C14.9135 0.92106 14.9983 0.864371 15.0917 0.825694C15.185 0.787018 15.2851 0.767111 15.3862 0.767111C15.4872 0.767111 15.5873 0.787018 15.6807 0.825694C15.774 0.864371 15.8588 0.92106 15.9303 0.992523C16.0018 1.06399 16.0584 1.14883 16.0971 1.24219C16.1358 1.33556 16.1556 1.43563 16.1556 1.53669V4.61454C16.1556 4.81861 16.0746 5.01433 15.9303 5.15863C15.786 5.30293 15.5902 5.384 15.3862 5.384ZM4.6137 5.384C4.40962 5.384 4.21391 5.30293 4.06961 5.15863C3.9253 5.01433 3.84424 4.81861 3.84424 4.61454V1.53669C3.84424 1.33262 3.9253 1.1369 4.06961 0.992599C4.21391 0.848297 4.40962 0.767229 4.6137 0.767229C4.81777 0.767229 5.01349 0.848297 5.15779 0.992599C5.30209 1.1369 5.38316 1.33262 5.38316 1.53669V4.61454C5.38316 4.71559 5.36326 4.81564 5.32459 4.909C5.28592 5.00235 5.22924 5.08718 5.15779 5.15863C5.08634 5.23008 5.00151 5.28676 4.90816 5.32543C4.8148 5.3641 4.71475 5.384 4.6137 5.384Z" fill="var(--fill-0, black)"/>
</g>
<defs>
<clipPath id="clip0_0_12">
<rect width="20" height="20" fill="white"/>
</clipPath>
</defs>
</svg>
