<svg preserveAspectRatio="none" width="100%" height="100%" overflow="visible" style="display: block;" viewBox="0 0 20 20" fill="none" xmlns="http://www.w3.org/2000/svg">
<g id="Frame" clip-path="url(#clip0_0_17)">
<path id="Vector" d="M17 0.500001C17.7956 0.500001 18.5587 0.816071 19.1213 1.37868C19.6839 1.94129 20 2.70435 20 3.5V13.5C20 14.2956 19.6839 15.0587 19.1213 15.6213C18.5587 16.1839 17.7956 16.5 17 16.5H10L5 19.5V16.5H3C2.20435 16.5 1.44129 16.1839 0.878679 15.6213C0.31607 15.0587 0 14.2956 0 13.5V3.5C0 2.70435 0.31607 1.94129 0.878679 1.37868C1.44129 0.816071 2.20435 0.500001 3 0.500001H17ZM5.385 7.1C5.20312 7.1 5.02302 7.13582 4.85498 7.20543C4.68695 7.27503 4.53427 7.37705 4.40566 7.50566C4.27705 7.63427 4.17503 7.78695 4.10543 7.95498C4.03582 8.12302 4 8.30312 4 8.485C4 8.66688 4.03582 8.84698 4.10543 9.01502C4.17503 9.18305 4.27705 9.33573 4.40566 9.46434C4.53427 9.59295 4.68695 9.69497 4.85498 9.76457C5.02302 9.83418 5.20312 9.87 5.385 9.87C5.75232 9.87 6.1046 9.72408 6.36434 9.46434C6.62408 9.20461 6.77 8.85232 6.77 8.485C6.77 8.11767 6.62408 7.76539 6.36434 7.50566C6.1046 7.24592 5.75232 7.1 5.385 7.1ZM10 7.1C9.81812 7.1 9.63802 7.13582 9.46998 7.20543C9.30195 7.27503 9.14926 7.37705 9.02066 7.50566C8.89205 7.63427 8.79003 7.78695 8.72043 7.95498C8.65082 8.12302 8.615 8.30312 8.615 8.485C8.615 8.66688 8.65082 8.84698 8.72043 9.01502C8.79003 9.18305 8.89205 9.33573 9.02066 9.46434C9.14926 9.59295 9.30195 9.69497 9.46998 9.76457C9.63802 9.83418 9.81812 9.87 10 9.87C10.3673 9.87 10.7196 9.72408 10.9793 9.46434C11.2391 9.20461 11.385 8.85232 11.385 8.485C11.385 8.11767 11.2391 7.76539 10.9793 7.50566C10.7196 7.24592 10.3673 7.1 10 7.1ZM14.615 7.1C14.4331 7.1 14.253 7.13582 14.085 7.20543C13.9169 7.27503 13.7643 7.37705 13.6357 7.50566C13.507 7.63427 13.405 7.78695 13.3354 7.95498C13.2658 8.12302 13.23 8.30312 13.23 8.485C13.23 8.66688 13.2658 8.84698 13.3354 9.01502C13.405 9.18305 13.507 9.33573 13.6357 9.46434C13.7643 9.59295 13.9169 9.69497 14.085 9.76457C14.253 9.83418 14.4331 9.87 14.615 9.87C14.9823 9.87 15.3346 9.72408 15.5943 9.46434C15.8541 9.20461 16 8.85232 16 8.485C16 8.11767 15.8541 7.76539 15.5943 7.50566C15.3346 7.24592 14.9823 7.1 14.615 7.1Z" fill="var(--fill-0, black)"/>
</g>
<defs>
<clipPath id="clip0_0_17">
<rect width="20" height="20" fill="white"/>
</clipPath>
</defs>
</svg>
