<svg preserveAspectRatio="none" width="100%" height="100%" overflow="visible" style="display: block;" viewBox="0 0 20 20" fill="none" xmlns="http://www.w3.org/2000/svg">
<g id="Frame">
<path id="Vector" d="M5.73317 1.53719C8.78594 1.53719 11.3725 2.88662 11.4648 4.85769V15.0069C11.4648 17.0364 8.84133 18.4351 5.73317 18.4351C2.62501 18.4351 1.93715e-07 17.0364 1.93715e-07 15.0069V4.9654C1.93715e-07 2.9374 2.62501 1.53719 5.73317 1.53719ZM13.5313 7.29652C16.584 7.29652 19.1706 8.64595 19.2629 10.617V14.0575C19.2629 16.0886 16.6394 17.4857 13.5313 17.4857C13.1189 17.4857 12.7158 17.4611 12.3234 17.4134V15.7963C12.7034 15.8516 13.1081 15.884 13.5313 15.884C15.8178 15.884 17.5811 14.9715 17.6596 14.1175L17.6627 14.056V13.1405C17.0072 13.539 16.1855 13.8329 15.2623 14.0021C14.292 14.174 13.3016 14.201 12.3234 14.0822V12.4619C13.2044 12.5928 14.1008 12.5798 14.9776 12.4234C16.6256 12.1249 17.6627 11.3664 17.6627 10.7232C17.6627 9.85229 15.8716 8.89676 13.5313 8.89676C13.1081 8.89676 12.7034 8.92753 12.3234 8.98446V7.36884C12.7235 7.3196 13.1281 7.29652 13.5313 7.29652ZM9.86456 14.0898C9.20908 14.4884 8.38742 14.7823 7.4642 14.9515C6.89282 15.0532 6.31352 15.1036 5.73317 15.1023C5.15308 15.1038 4.573 15.0531 4.00214 14.9515C3.07892 14.7823 2.25726 14.4884 1.60178 14.0898V15.0069L1.60486 15.0669C1.68333 15.9224 3.44667 16.8333 5.73317 16.8333C8.07198 16.8333 9.86456 15.8793 9.86456 15.0069V14.0898ZM9.86456 10.7355C9.20908 11.134 8.38742 11.4294 7.4642 11.5972C6.91027 11.6972 6.3271 11.748 5.73317 11.748C5.15308 11.748 4.573 11.6987 4.00214 11.5956C3.07892 11.4294 2.25726 11.134 1.60178 10.7355V11.6741L1.60486 11.7356C1.66948 12.3665 2.69117 13.0851 4.2868 13.3744C4.74687 13.4574 5.23463 13.5005 5.73317 13.5005C6.23324 13.5005 6.71947 13.4574 7.17954 13.3744C8.82748 13.0743 9.86456 12.3173 9.86456 11.6741V10.7355ZM1.60178 7.38114V8.31975L1.60486 8.38283C1.66948 9.01216 2.69117 9.73073 4.2868 10.02C4.74687 10.1031 5.23463 10.1462 5.73317 10.1462C6.23324 10.1462 6.71947 10.1031 7.17954 10.02C8.82748 9.7215 9.86456 8.96292 9.86456 8.31975V7.38114C9.20908 7.77813 8.38742 8.07356 7.4642 8.24127C6.91027 8.34283 6.3271 8.39514 5.73317 8.39514C5.15308 8.39514 4.573 8.34437 4.00214 8.24127C3.07892 8.0751 2.25726 7.77967 1.60178 7.38114ZM5.73317 3.13897C3.39436 3.13897 1.60178 4.09296 1.60178 4.9654C1.60178 5.60857 2.63886 6.36561 4.2868 6.66565C4.74687 6.74874 5.23463 6.79183 5.73317 6.79183C6.23324 6.79183 6.71947 6.74874 7.17954 6.66565C8.82748 6.36561 9.86456 5.60857 9.86456 4.9654C9.86456 4.09296 8.07352 3.13897 5.73317 3.13897Z" fill="var(--fill-0, #C5C5C5)"/>
</g>
</svg>
