<svg preserveAspectRatio="none" width="100%" height="100%" overflow="visible" style="display: block;" viewBox="0 0 20 20" fill="none" xmlns="http://www.w3.org/2000/svg">
<g id="Frame">
<path id="Vector" d="M19.5831 15.9029L11.7435 2.32544C10.7846 0.665437 9.21748 0.665437 8.25883 2.32544L0.419159 15.9029C-0.539487 17.5646 0.244788 18.9201 2.16075 18.9201H17.8415C19.7575 18.9201 20.541 17.5645 19.5831 15.9029ZM8.92436 6.17789C9.20608 5.87331 9.56425 5.72099 10.0011 5.72099C10.4381 5.72099 10.7959 5.8717 11.0779 6.1718C11.3581 6.47257 11.4982 6.84872 11.4982 7.30105C11.4982 7.69021 10.9133 10.5519 10.7183 12.6338H9.30966C9.13858 10.5519 8.50401 7.69021 8.50401 7.30105C8.50405 6.85559 8.64432 6.48099 8.92436 6.17789ZM11.0582 16.0773C10.7619 16.3659 10.4093 16.5097 10.0012 16.5097C9.59313 16.5097 9.24042 16.3659 8.94415 16.0773C8.6487 15.7894 8.50185 15.4407 8.50185 15.0311C8.50185 14.6237 8.6487 14.2711 8.94415 13.9757C9.24042 13.6801 9.59313 13.5324 10.0012 13.5324C10.4093 13.5324 10.7619 13.6801 11.0582 13.9757C11.3535 14.2711 11.5007 14.6237 11.5007 15.0311C11.5007 15.4407 11.3535 15.7894 11.0582 16.0773Z" fill="var(--fill-0, #6D6D6D)"/>
</g>
</svg>
