<svg preserveAspectRatio="none" width="100%" height="100%" overflow="visible" style="display: block;" viewBox="0 0 20 19.4336" fill="none" xmlns="http://www.w3.org/2000/svg">
<g id="Group 9107">
<path id="Vector" d="M15.5088 12.9555C15.5626 12.7611 15.5774 12.558 15.5524 12.3578C15.5274 12.1577 15.4631 11.9644 15.3632 11.7892L10.3179 3.06808C10.0643 2.65412 9.73171 2.29404 9.33917 2.00834C8.90083 1.6721 8.47751 1.44844 8.0692 1.33886L3.26256 0.0539604C3.069 4.22415e-05 2.86645 -0.0136566 2.6674 0.0137086C2.46834 0.0410739 2.277 0.108923 2.10518 0.213072C1.92883 0.309732 1.77416 0.441521 1.65075 0.6003C1.52733 0.75908 1.43778 0.941476 1.38764 1.13622L0.0996592 5.9426C-0.00992393 6.35089 -0.0294387 6.82823 0.0426159 7.37611C0.114671 7.924 0.260281 8.37882 0.476445 8.74207L5.51427 17.4872C5.72442 17.8475 6.03216 18.0831 6.44047 18.1927C6.84127 18.3008 7.23007 18.2528 7.60535 18.0471L14.8018 13.8832C14.9765 13.7852 15.1292 13.6525 15.2505 13.4932C15.3719 13.3339 15.4593 13.1514 15.5073 12.957L15.5088 12.9555ZM5.25607 5.66941C5.08313 5.77293 4.89081 5.83992 4.69098 5.86625C4.49115 5.89258 4.28804 5.8777 4.09419 5.82252C3.89844 5.7734 3.71484 5.68464 3.55476 5.56175C3.39468 5.43885 3.26151 5.28442 3.16348 5.10802C3.06042 4.93517 2.9938 4.74307 2.96773 4.54353C2.94166 4.34399 2.95668 4.14122 3.01187 3.9477C3.06074 3.75205 3.14923 3.56851 3.27188 3.40844C3.39452 3.24836 3.54871 3.11515 3.72491 3.01704C3.89785 2.91353 4.09017 2.84654 4.29 2.82021C4.48983 2.79387 4.69293 2.80876 4.88679 2.86394C5.08227 2.91324 5.26557 3.00208 5.42539 3.12497C5.5852 3.24786 5.71814 3.40219 5.81599 3.57844C6.02615 3.9447 6.07869 4.33197 5.96911 4.74026C5.91997 4.9356 5.83136 5.11881 5.70873 5.27861C5.5861 5.4384 5.43205 5.5714 5.25607 5.66941Z" fill="var(--fill-0, #6D6D6D)"/>
<path id="Vector_2" d="M19.799 12.9762L14.7552 4.25504C14.5011 3.84093 14.168 3.48085 13.7749 3.19529C13.3366 2.85905 12.9133 2.6354 12.505 2.52582L9.91702 1.83383C10.3253 1.94191 10.7487 2.16407 11.187 2.5018C11.6253 2.83804 11.9526 3.19229 12.1657 3.56305L17.2111 12.2842C17.4152 12.6594 17.4647 13.0497 17.3567 13.449C17.3086 13.6434 17.2212 13.8259 17.0999 13.9852C16.9785 14.1445 16.8258 14.2772 16.6511 14.3752L9.76541 18.35C9.93203 18.6502 10.0897 18.8783 10.2383 19.0329C10.3869 19.189 10.5985 19.3031 10.8762 19.3782C11.2771 19.4848 11.6658 19.4382 12.0426 19.2326L19.2391 15.0686C19.4137 14.9707 19.5665 14.838 19.6878 14.6787C19.8092 14.5194 19.8966 14.3369 19.9446 14.1425C19.9984 13.9481 20.0132 13.745 19.9882 13.5448C19.9632 13.3446 19.8989 13.1514 19.799 12.9762Z" fill="var(--fill-0, #6D6D6D)"/>
</g>
</svg>
