<svg preserveAspectRatio="none" width="100%" height="100%" overflow="visible" style="display: block;" viewBox="0 0 20 20" fill="none" xmlns="http://www.w3.org/2000/svg">
<g id="Frame" clip-path="url(#clip0_0_20)">
<path id="Vector" d="M16.4282 7.93259C16.4282 4.10597 12.7437 0.993843 8.21361 0.993843C3.68452 0.993843 -4.09782e-07 4.10597 -4.09782e-07 7.93259C-4.09782e-07 9.62074 0.724495 11.2469 2.02138 12.4907C2.18249 12.7419 2.20351 14.0928 2.06641 15.3827L1.95634 16.4194L2.82893 15.849C3.82662 15.1956 5.10449 14.4961 5.45573 14.4711C6.33833 14.7362 7.26697 14.8713 8.21361 14.8713C12.7437 14.8713 16.4282 11.7592 16.4282 7.93259ZM4.27792 8.76516C4.15387 8.76568 4.03093 8.74177 3.91612 8.69478C3.80131 8.64779 3.69688 8.57865 3.60879 8.49131C3.5207 8.40396 3.45067 8.30012 3.40271 8.18571C3.35476 8.0713 3.3298 7.94857 3.32928 7.82451C3.32875 7.70046 3.35266 7.57752 3.39965 7.46271C3.44664 7.3479 3.51578 7.24347 3.60313 7.15538C3.69047 7.06728 3.79431 6.99726 3.90872 6.9493C4.02313 6.90134 4.14587 6.87639 4.26992 6.87586C4.52045 6.8748 4.76115 6.97331 4.93906 7.14971C5.11696 7.32612 5.21751 7.56597 5.21857 7.81651C5.21963 8.06704 5.12112 8.30774 4.94472 8.48565C4.76831 8.66355 4.52846 8.76409 4.27792 8.76516ZM8.23863 8.76516C8.11458 8.76562 7.99165 8.74164 7.87686 8.69459C7.76208 8.64754 7.65768 8.57835 7.56964 8.49095C7.4816 8.40356 7.41163 8.29968 7.36373 8.18525C7.31583 8.07081 7.29094 7.94806 7.29048 7.82401C7.29002 7.69996 7.314 7.57703 7.36105 7.46225C7.4081 7.34746 7.47729 7.24307 7.56469 7.15502C7.65208 7.06698 7.75596 6.99701 7.87039 6.94911C7.98483 6.90121 8.10757 6.87632 8.23163 6.87586C8.48216 6.87494 8.72281 6.97357 8.90062 7.15007C9.07843 7.32657 9.17885 7.56647 9.17978 7.81701C9.1807 8.06754 9.08207 8.30819 8.90557 8.486C8.72907 8.66381 8.48917 8.76423 8.23863 8.76516ZM11.9972 8.76516C11.8731 8.76562 11.7502 8.74164 11.6354 8.69459C11.5206 8.64754 11.4163 8.57835 11.3282 8.49095C11.1504 8.31445 11.05 8.07455 11.0491 7.82401C11.0481 7.57348 11.1468 7.33283 11.3233 7.15502C11.4998 6.97721 11.7397 6.87679 11.9902 6.87586C12.2407 6.87494 12.4814 6.97357 12.6592 7.15007C12.837 7.32657 12.9374 7.56647 12.9383 7.81701C12.9393 8.06754 12.8406 8.30819 12.6641 8.486C12.4876 8.66381 12.2477 8.76423 11.9972 8.76516Z" fill="var(--fill-0, #6D6D6D)"/>
<path id="Vector_2" d="M20.0137 9.61274C20.0137 7.67241 19.043 5.80813 17.3519 4.49824C17.2481 4.41822 17.1169 4.38257 16.9869 4.39907C16.857 4.41558 16.7388 4.4829 16.6584 4.5863C16.6143 4.64477 16.5842 4.71254 16.5703 4.78443C17.1277 5.78412 17.4479 6.89588 17.4479 8.07268C17.4479 11.8252 14.2768 14.9634 10.0799 15.6779C10.0324 15.7408 10.0009 15.8143 9.98783 15.892C9.9488 16.1622 10.1369 16.4134 10.4071 16.4524C11.7941 16.6525 13.2411 16.5475 14.557 16.1522C14.9092 16.1762 16.1871 16.8757 17.1847 17.5291L18.0583 18.1005L17.9473 17.0618C17.8092 15.7739 17.8302 14.423 17.9743 14.1929C19.2892 12.928 20.0137 11.3009 20.0137 9.61274Z" fill="var(--fill-0, #6D6D6D)"/>
</g>
<defs>
<clipPath id="clip0_0_20">
<rect width="20" height="20" fill="white"/>
</clipPath>
</defs>
</svg>
