<svg preserveAspectRatio="none" width="100%" height="100%" overflow="visible" style="display: block;" viewBox="0 0 356 81.3806" fill="none" xmlns="http://www.w3.org/2000/svg">
<g id="Union" filter="url(#filter0_d_0_10)">
<path d="M259.447 7.42943L264.941 14.8806H343.5C346.814 14.8806 349.5 17.5669 349.5 20.8806V68.8806C349.5 72.1943 346.814 74.8806 343.5 74.8806H12.5C9.18629 74.8806 6.5 72.1943 6.5 68.8806V20.8806C6.5 17.5669 9.18629 14.8806 12.5 14.8806H253.547L258.632 7.44407L259.029 6.86302L259.447 7.42943Z" fill="var(--fill-0, white)"/>
<path d="M259.447 7.42943L259.85 7.13269L259.85 7.13254L259.447 7.42943ZM264.941 14.8806L264.539 15.1773L264.689 15.3806H264.941V14.8806ZM343.5 14.8806V14.3806V14.8806ZM349.5 20.8806H350H349.5ZM349.5 68.8806H350V68.8806H349.5ZM343.5 74.8806V75.3806V74.8806ZM12.5 74.8806V75.3806V74.8806ZM6.5 68.8806H6H6.5ZM6.5 20.8806H6V20.8806H6.5ZM12.5 14.8806V14.3806V14.8806ZM253.547 14.8806V15.3806H253.811L253.96 15.1628L253.547 14.8806ZM258.632 7.44407L258.219 7.16178L258.219 7.16185L258.632 7.44407ZM259.029 6.86302L259.432 6.56614L259.014 6L258.617 6.58073L259.029 6.86302ZM259.447 7.42943L259.045 7.72616L264.539 15.1773L264.941 14.8806L265.344 14.5839L259.85 7.13269L259.447 7.42943ZM264.941 14.8806V15.3806H343.5V14.8806V14.3806H264.941V14.8806ZM343.5 14.8806V15.3806C346.538 15.3806 349 17.843 349 20.8806H349.5H350C350 17.2907 347.09 14.3806 343.5 14.3806V14.8806ZM349.5 20.8806H349V68.8806H349.5H350V20.8806H349.5ZM349.5 68.8806H349C349 71.9182 346.538 74.3806 343.5 74.3806V74.8806V75.3806C347.09 75.3806 350 72.4704 350 68.8806H349.5ZM343.5 74.8806V74.3806H12.5V74.8806V75.3806H343.5V74.8806ZM12.5 74.8806V74.3806C9.46243 74.3806 7 71.9182 7 68.8806H6.5H6C6 72.4704 8.91015 75.3806 12.5 75.3806V74.8806ZM6.5 68.8806H7V20.8806H6.5H6V68.8806H6.5ZM6.5 20.8806H7C7 17.843 9.46243 15.3806 12.5 15.3806V14.8806V14.3806C8.91015 14.3806 6 17.2907 6 20.8806H6.5ZM12.5 14.8806V15.3806H253.547V14.8806V14.3806H12.5V14.8806ZM253.547 14.8806L253.96 15.1628L259.045 7.7263L258.632 7.44407L258.219 7.16185L253.134 14.5984L253.547 14.8806ZM258.632 7.44407L259.045 7.72637L259.442 7.14531L259.029 6.86302L258.617 6.58073L258.219 7.16178L258.632 7.44407ZM259.029 6.86302L258.627 7.1599L259.045 7.72631L259.447 7.42943L259.85 7.13254L259.432 6.56614L259.029 6.86302Z" fill="var(--stroke-0, #F4F4F4)"/>
</g>
<defs>
<filter id="filter0_d_0_10" x="0" y="5.96046e-08" width="356" height="81.3806" filterUnits="userSpaceOnUse" color-interpolation-filters="sRGB">
<feFlood flood-opacity="0" result="BackgroundImageFix"/>
<feColorMatrix in="SourceAlpha" type="matrix" values="0 0 0 0 0 0 0 0 0 0 0 0 0 0 0 0 0 0 127 0" result="hardAlpha"/>
<feOffset/>
<feGaussianBlur stdDeviation="3"/>
<feComposite in2="hardAlpha" operator="out"/>
<feColorMatrix type="matrix" values="0 0 0 0 0 0 0 0 0 0 0 0 0 0 0 0 0 0 0.3 0"/>
<feBlend mode="normal" in2="BackgroundImageFix" result="effect1_dropShadow_0_10"/>
<feBlend mode="normal" in="SourceGraphic" in2="effect1_dropShadow_0_10" result="shape"/>
</filter>
</defs>
</svg>
