<svg preserveAspectRatio="none" width="100%" height="100%" overflow="visible" style="display: block;" viewBox="0 0 20 20" fill="none" xmlns="http://www.w3.org/2000/svg">
<g id="Frame">
<path id="Vector" d="M16.94 15.13H3.06C2.81981 15.13 2.58946 15.0346 2.41963 14.8647C2.24979 14.6949 2.15438 14.4646 2.15438 14.2244C2.15438 13.9842 2.24979 13.7538 2.41963 13.584C2.58946 13.4142 2.81981 13.3187 3.06 13.3187H3.965V8.49125C3.96567 7.0821 4.45953 5.71762 5.36093 4.63448C6.26233 3.55134 7.51441 2.81786 8.9 2.56125C8.8316 2.43661 8.7947 2.29715 8.7925 2.155C8.79283 1.91486 8.88846 1.68468 9.05838 1.51499C9.2283 1.34531 9.45861 1.25 9.69875 1.25H10.3012C10.8012 1.25 11.2062 1.655 11.2062 2.155C11.2047 2.29708 11.1682 2.4366 11.1 2.56125C12.4854 2.81812 13.7371 3.55171 14.6383 4.63483C15.5394 5.71794 16.0331 7.08228 16.0337 8.49125V13.3187H16.94C17.1802 13.3187 17.4105 13.4142 17.5804 13.584C17.7502 13.7538 17.8456 13.9842 17.8456 14.2244C17.8456 14.4646 17.7502 14.6949 17.5804 14.8647C17.4105 15.0346 17.1802 15.13 16.94 15.13ZM10 18.75C9.3045 18.7502 8.63031 18.51 8.09158 18.0701C7.55284 17.6303 7.18268 17.0177 7.04375 16.3363H12.9562C12.8173 17.0177 12.4472 17.6303 11.9084 18.0701C11.3697 18.51 10.6955 18.7502 10 18.75Z" fill="var(--fill-0, #6D6D6D)"/>
</g>
</svg>
