<svg preserveAspectRatio="none" width="100%" height="100%" overflow="visible" style="display: block;" viewBox="0 0 20 20" fill="none" xmlns="http://www.w3.org/2000/svg">
<g id="Frame">
<path id="Vector" d="M16.6689 12.9317C17.1042 13.1767 17.4865 13.5056 17.7939 13.8993C18.1012 14.2931 18.3274 14.7439 18.4593 15.2256C18.5912 15.7074 18.6263 16.2105 18.5624 16.7059C18.4986 17.2013 18.3371 17.6791 18.0873 18.1117C17.8376 18.5443 17.5045 18.923 17.1074 19.2259C16.7103 19.5289 16.257 19.7501 15.7738 19.8767C15.2906 20.0033 14.7871 20.0328 14.2925 19.9635C13.7978 19.8941 13.3218 19.7274 12.892 19.4729C12.0364 18.9661 11.4151 18.1424 11.163 17.1804C10.911 16.2184 11.0485 15.1958 11.5458 14.3346C12.043 13.4734 12.8599 12.8431 13.819 12.5804C14.7782 12.3178 15.8022 12.444 16.6689 12.9317ZM3.78209 1.31151C4.25732 1.31151 4.64621 1.70111 4.64621 2.17705L4.6512 2.26482C4.67214 2.46242 4.76021 2.64686 4.90071 2.78737C5.04122 2.92788 5.22566 3.01595 5.42327 3.03688L5.51175 3.04188H11.8831C12.329 3.04188 12.6987 2.69937 12.7436 2.26482L12.7479 2.17705C12.7479 1.73108 13.0904 1.36075 13.525 1.31651L13.6127 1.31151H14.7373L14.8515 1.31579C15.2293 1.34339 15.5849 1.50535 15.8537 1.77235C16.1225 2.03935 16.2869 2.39375 16.3171 2.77144L16.3228 2.88276V10.7675C16.3228 10.8118 16.3085 10.8546 16.3085 10.8838C16.2809 11.044 16.1912 11.1868 16.059 11.2812C15.9267 11.3757 15.7626 11.4142 15.6021 11.3883C14.7649 11.2475 13.9054 11.3269 13.1082 11.6188C10.5716 12.5557 9.2736 15.3664 10.2112 17.8895C10.2255 17.9466 10.2398 18.0194 10.2398 18.0914C10.241 18.2426 10.1864 18.389 10.0865 18.5025C9.98658 18.616 9.84831 18.6886 9.69817 18.7065L9.61968 18.7108H2.65753C2.26042 18.7099 1.8783 18.5591 1.58762 18.2885C1.29695 18.018 1.11917 17.6476 1.08985 17.2516L1.08629 17.1396V2.88276C1.08629 2.05575 1.73205 1.37359 2.5455 1.31579L2.65753 1.31151H3.78138H3.78209ZM14.3213 14.4666C13.881 14.0413 13.1154 14.3453 13.1154 14.9846V17.6876L13.1211 17.7703C13.1414 17.944 13.2247 18.1042 13.3554 18.2205C13.486 18.3368 13.6548 18.4011 13.8296 18.4011L13.9131 18.3961C14.0867 18.3757 14.2467 18.2922 14.3629 18.1616C14.479 18.031 14.5432 17.8623 14.5432 17.6876L14.5425 16.9476L15.545 18.1457L15.6007 18.2049C16.0409 18.6309 16.8059 18.3262 16.8059 17.6876V14.9846L16.8009 14.9011C16.7804 14.7276 16.697 14.5675 16.5664 14.4514C16.4358 14.3353 16.2671 14.2711 16.0923 14.2711L16.0088 14.2761C15.8353 14.2965 15.6752 14.38 15.5591 14.5106C15.443 14.6412 15.3788 14.8099 15.3788 14.9846L15.3781 15.7232L14.3769 14.5265L14.3213 14.4666ZM6.95313 13.9971H4.66119C4.44879 13.9937 4.24333 14.0727 4.08796 14.2176C3.93259 14.3624 3.83939 14.5619 3.82794 14.774C3.81649 14.9861 3.88767 15.1944 4.02655 15.3552C4.16542 15.5159 4.36118 15.6166 4.57271 15.6361L4.66119 15.6404H6.93885C7.38554 15.6404 7.76015 15.28 7.77443 14.8191C7.77443 14.3574 7.39981 13.9971 6.95313 13.9971ZM9.3314 10.0183H4.66119C4.19952 10.0183 3.83918 10.3936 3.83918 10.8403C3.83918 11.257 4.16598 11.5988 4.57271 11.6431L4.66119 11.6473H9.3314C9.77808 11.6473 10.1384 11.2727 10.1534 10.8403C10.1534 10.3786 9.77808 10.0183 9.3314 10.0183ZM12.7479 6.32851H4.66119C4.4502 6.32726 4.24682 6.40726 4.09322 6.55192C3.93962 6.69659 3.84759 6.89481 3.83621 7.1055C3.82484 7.31619 3.89498 7.52318 4.0321 7.68354C4.16923 7.84391 4.36281 7.94535 4.57271 7.96683L4.66119 7.97182H12.7472C13.1939 7.97182 13.5542 7.59649 13.5692 7.14981C13.5692 6.68885 13.1939 6.32851 12.7472 6.32851H12.7479ZM10.8884 0C11.1779 0.0073408 11.453 0.127501 11.6552 0.334854C11.8574 0.542207 11.9705 0.82034 11.9705 1.10993C11.9705 1.39953 11.8574 1.67766 11.6552 1.88501C11.453 2.09236 11.1779 2.21253 10.8884 2.21987H6.52071C6.22637 2.21987 5.94407 2.10299 5.73587 1.89492C5.52767 1.68686 5.41061 1.40463 5.41042 1.11029C5.41042 0.489498 5.90063 0 6.52071 0H10.8877H10.8884Z" fill="var(--fill-0, #6D6D6D)"/>
</g>
</svg>
