<svg preserveAspectRatio="none" width="100%" height="100%" overflow="visible" style="display: block;" viewBox="0 0 20 20" fill="none" xmlns="http://www.w3.org/2000/svg">
<g id="Frame" clip-path="url(#clip0_0_60)">
<path id="Vector" d="M8.74281 9.38603L0.832648 5.71405C0.753563 5.68086 0.668622 5.66387 0.582854 5.66409C0.507404 5.66299 0.432476 5.67676 0.362349 5.70462C0.292222 5.73248 0.22827 5.77388 0.174145 5.82646C0.120021 5.87904 0.0767838 5.94176 0.0469037 6.01105C0.0170235 6.08034 0.00108556 6.15484 0 6.23029L0 14.6234C0.000284424 14.8264 0.0563538 15.0254 0.162082 15.1986C0.26781 15.3719 0.419129 15.5128 0.599507 15.6059L8.52632 19.9107C8.61492 19.9619 8.71543 19.9888 8.81774 19.9888C8.92006 19.9888 9.02057 19.9619 9.10917 19.9107C9.19685 19.864 9.27026 19.7945 9.32157 19.7095C9.37289 19.6244 9.4002 19.5271 9.4006 19.4278V10.4102C9.39984 10.1946 9.33753 9.98364 9.22101 9.80221C9.10448 9.62078 8.93858 9.4764 8.74281 9.38603ZM7.05253 12.4918L2.34807 10.1854V9.05297L7.05253 11.3178V12.4918ZM19.3591 4.24859C19.383 4.18744 19.3944 4.12212 19.3926 4.05649C19.3908 3.99086 19.3759 3.92625 19.3487 3.86648C19.3216 3.80671 19.2827 3.753 19.2344 3.70851C19.1861 3.66401 19.1294 3.62965 19.0676 3.60745L10.4581 0.0936748C10.3104 0.0318427 10.1519 0 9.99178 0C9.83168 0 9.67317 0.0318427 9.52549 0.0936748L0.915913 3.60745C0.850714 3.63247 0.79127 3.67046 0.741178 3.71912C0.691086 3.76779 0.651388 3.8261 0.624486 3.89055C0.600588 3.9517 0.589189 4.01702 0.590964 4.08265C0.592739 4.14828 0.60765 4.21289 0.634818 4.27266C0.661986 4.33243 0.700858 4.38614 0.749139 4.43063C0.797419 4.47512 0.854127 4.50949 0.915913 4.53169L9.52549 8.04546C9.82548 8.1617 10.1581 8.1617 10.4581 8.04546L19.0676 4.53169C19.1328 4.50667 19.1923 4.46867 19.2424 4.42001C19.2925 4.37135 19.3322 4.31304 19.3591 4.24859ZM19.9253 5.9805C19.854 5.84617 19.7344 5.74392 19.5907 5.69445C19.4469 5.64498 19.2897 5.65199 19.1509 5.71405L11.2407 9.39435C11.0456 9.4833 10.88 9.6262 10.7635 9.80619C10.6469 9.98618 10.5843 10.1958 10.583 10.4102V19.4194C10.5831 19.5187 10.6089 19.6162 10.6579 19.7025C10.6982 19.7716 10.7519 19.8319 10.8159 19.88C10.8798 19.928 10.9528 19.9627 11.0304 19.9821C11.1079 20.0015 11.1886 20.0052 11.2677 19.9929C11.3467 19.9806 11.4225 19.9527 11.4905 19.9107L19.4174 15.6142C19.591 15.514 19.7349 15.3694 19.8344 15.1953C19.9339 15.0213 19.9853 14.8239 19.9836 14.6234V6.23029C19.9862 6.14337 19.9661 6.05727 19.9253 5.9805ZM18.9677 11.6092V13.2745H18.235C18.235 13.2745 18.1767 13.4993 18.1434 13.6076L18.0435 13.874L18.5597 14.5568L17.6355 15.8224L17.1192 15.148L16.9111 15.2812C16.8256 15.3296 16.7365 15.3713 16.6446 15.4061V16.3636H15.3291V15.4144C15.2365 15.3813 15.1473 15.3395 15.0626 15.2895L14.8628 15.1563L14.3465 15.8307L13.4056 14.6317L13.9219 13.9489C13.8835 13.8621 13.8502 13.7731 13.822 13.6825C13.7838 13.5737 13.7532 13.4624 13.7304 13.3494H12.9976V11.6841H13.7304C13.7783 11.4586 13.848 11.2383 13.9385 11.0263L13.4223 10.3519L14.3299 9.16121L14.8461 9.83566C14.9994 9.72176 15.1674 9.62932 15.3457 9.56088V8.5284H16.653V9.48594C16.8338 9.55435 17.0047 9.64677 17.1609 9.76072L17.6771 9.08627L18.5847 10.277L18.0685 10.9514C18.159 11.1634 18.2287 11.3837 18.2766 11.6092H18.9677ZM15.9702 14.665C15.046 14.665 14.3049 13.6742 14.3049 12.4502C14.3049 11.2262 15.046 10.2353 15.9702 10.2353C16.8944 10.2353 17.6355 11.2262 17.6355 12.4502C17.6355 13.6742 16.8944 14.665 15.9702 14.665Z" fill="var(--fill-0, black)"/>
</g>
<defs>
<clipPath id="clip0_0_60">
<rect width="20" height="20" fill="white"/>
</clipPath>
</defs>
</svg>
