<svg preserveAspectRatio="none" width="100%" height="100%" overflow="visible" style="display: block;" viewBox="0 0 20 20" fill="none" xmlns="http://www.w3.org/2000/svg">
<g id="Frame">
<path id="Vector" d="M12.9412 8.76354L12.9859 8.80883C13.7561 9.57286 14.7974 10.0011 15.8823 10C16.4927 10.0008 17.0956 9.86534 17.647 9.60352V16.4706C17.647 16.9386 17.4611 17.3875 17.1302 17.7184C16.7992 18.0494 16.3504 18.2353 15.8823 18.2353H4.11766C3.64963 18.2353 3.20077 18.0494 2.86982 17.7184C2.53887 17.3875 2.35295 16.9386 2.35295 16.4706V9.60354C2.88824 9.85762 3.48705 10 4.11766 10L4.25824 9.99766C5.29388 9.96346 6.2783 9.53901 7.0141 8.80941L7.05883 8.76352L7.10353 8.80883C7.8738 9.57287 8.91508 10.0011 10 10L10.1406 9.99766C11.1762 9.96347 12.1607 9.53902 12.8965 8.80941L12.9412 8.76352L12.9412 8.76354ZM15.6018 12.1882C15.519 12.1056 15.4069 12.0592 15.29 12.0592C15.1731 12.0592 15.061 12.1056 14.9782 12.1882L12.17 14.9953L10.6106 13.4359C10.5699 13.3938 10.5212 13.3602 10.4674 13.3371C10.4136 13.3141 10.3558 13.3019 10.2972 13.3014C10.2387 13.3009 10.1807 13.312 10.1265 13.3342C10.0723 13.3564 10.023 13.3891 9.98163 13.4305C9.94021 13.4718 9.90745 13.521 9.88524 13.5752C9.86303 13.6294 9.85183 13.6874 9.85228 13.7459C9.85273 13.8045 9.86483 13.8624 9.88786 13.9162C9.9109 13.97 9.94442 14.0187 9.98646 14.0594L11.8582 15.9318C11.941 16.0144 12.0531 16.0608 12.17 16.0608C12.2869 16.0608 12.399 16.0144 12.4818 15.9318L15.6018 12.8118C15.6844 12.729 15.7308 12.6169 15.7308 12.5C15.7308 12.3831 15.6844 12.271 15.6018 12.1882ZM7.79414 14.7059H5.14707C5.03006 14.7059 4.91785 14.7523 4.83511 14.8351C4.75237 14.9178 4.70589 15.03 4.70589 15.147C4.70589 15.264 4.75237 15.3763 4.83511 15.459C4.91785 15.5417 5.03006 15.5882 5.14707 15.5882H7.79414C7.91115 15.5882 8.02337 15.5417 8.1061 15.459C8.18884 15.3763 8.23532 15.264 8.23532 15.147C8.23532 15.03 8.18884 14.9178 8.1061 14.8351C8.02337 14.7523 7.91115 14.7059 7.79414 14.7059ZM7.79414 11.7647H5.14707C5.03006 11.7647 4.91785 11.8112 4.83511 11.8939C4.75238 11.9766 4.7059 12.0889 4.7059 12.2059C4.7059 12.3229 4.75238 12.4351 4.83511 12.5178C4.91785 12.6006 5.03006 12.647 5.14707 12.647H7.79414C7.91115 12.647 8.02336 12.6006 8.1061 12.5178C8.18883 12.4351 8.23531 12.3229 8.23531 12.2059C8.23531 12.0889 8.18883 11.9766 8.1061 11.8939C8.02336 11.8112 7.91115 11.7647 7.79414 11.7647Z" fill="var(--fill-0, black)"/>
<path id="Vector_2" d="M10 8.82354C9.24208 8.8235 8.51343 8.53087 7.96601 8.00668C7.41858 7.48249 7.09465 6.76721 7.06176 6.01C7.02668 6.76748 6.70126 7.48236 6.15305 8.00626C5.60484 8.53016 4.87595 8.82283 4.11766 8.82354C2.53588 8.82354 1.17646 7.64705 1.17646 5.88234C1.17646 5.56412 1.43529 4.6 1.95117 2.99C2.06543 2.6341 2.28974 2.32367 2.59178 2.10346C2.89381 1.88325 3.25797 1.76463 3.63176 1.76471H16.3682C16.742 1.76463 17.1062 1.88325 17.4082 2.10346C17.7103 2.32367 17.9346 2.6341 18.0488 2.99C18.5647 4.6 18.8235 5.56471 18.8235 5.88234C18.8226 6.65072 18.521 7.38823 17.9833 7.9371C17.4456 8.48596 16.7144 8.8026 15.9462 8.81928C15.178 8.83596 14.4338 8.55136 13.8728 8.02635C13.3117 7.50134 12.9784 6.77761 12.9441 6.01C12.909 6.76748 12.5836 7.48237 12.0354 8.00626C11.4872 8.53016 10.7583 8.82284 10 8.82354Z" fill="var(--fill-0, black)"/>
</g>
</svg>
