<svg preserveAspectRatio="none" width="100%" height="100%" overflow="visible" style="display: block;" viewBox="0 0 20 20" fill="none" xmlns="http://www.w3.org/2000/svg">
<g id="Frame">
<path id="Vector" d="M1.36364 1.36364C1.36364 1.00198 1.5073 0.655131 1.76304 0.3994C2.01877 0.143668 2.36561 0 2.72727 0H15C15.2411 5.65092e-09 15.4723 0.0957789 15.6428 0.266267C15.8133 0.436754 15.9091 0.667985 15.9091 0.909091V2.72727H17.7273C17.9684 2.72727 18.1996 2.82305 18.3701 2.99354C18.5406 3.16403 18.6364 3.39526 18.6364 3.63636V19.0909C18.6364 19.332 18.5406 19.5632 18.3701 19.7337C18.1996 19.9042 17.9684 20 17.7273 20H5C4.75889 20 4.52766 19.9042 4.35718 19.7337C4.18669 19.5632 4.09091 19.332 4.09091 19.0909V17.2727H2.27273C2.03162 17.2727 1.80039 17.1769 1.6299 17.0065C1.45942 16.836 1.36364 16.6047 1.36364 16.3636V1.36364ZM14.0909 1.81818H3.18182V15.4545H4.09091V3.63636C4.09091 3.39526 4.18669 3.16403 4.35718 2.99354C4.52766 2.82305 4.75889 2.72727 5 2.72727H14.0909V1.81818ZM7.72727 9.09091C7.72727 9.21029 7.75079 9.32851 7.79647 9.4388C7.84216 9.5491 7.90912 9.64932 7.99354 9.73373C8.07796 9.81815 8.17817 9.88511 8.28847 9.9308C8.39877 9.97649 8.51698 10 8.63636 10H14.0909C14.2103 10 14.3285 9.97652 14.4388 9.93084C14.5492 9.88516 14.6494 9.8182 14.7338 9.73378C14.8183 9.64936 14.8852 9.54914 14.9309 9.43884C14.9766 9.32853 15.0001 9.2103 15.0001 9.09091C15.0001 8.97151 14.9766 8.85329 14.9309 8.74298C14.8852 8.63268 14.8183 8.53245 14.7338 8.44804C14.6494 8.36362 14.5492 8.29666 14.4388 8.25098C14.3285 8.2053 14.2103 8.1818 14.0909 8.18182H8.63636C8.39526 8.18182 8.16403 8.2776 7.99354 8.44809C7.82305 8.61857 7.72727 8.8498 7.72727 9.09091ZM7.72727 12.7273C7.72727 12.8467 7.75079 12.9649 7.79647 13.0752C7.84216 13.1855 7.90912 13.2857 7.99354 13.3701C8.07796 13.4545 8.17817 13.5215 8.28847 13.5672C8.39877 13.6128 8.51698 13.6364 8.63636 13.6364H14.0909C14.332 13.6364 14.5632 13.5406 14.7337 13.3701C14.9042 13.1996 15 12.9684 15 12.7273C15 12.4862 14.9042 12.2549 14.7337 12.0844C14.5632 11.914 14.332 11.8182 14.0909 11.8182H8.63636C8.51698 11.8182 8.39877 11.8417 8.28847 11.8874C8.17817 11.9331 8.07796 12 7.99354 12.0844C7.90912 12.1689 7.84216 12.2691 7.79647 12.3794C7.75079 12.4897 7.72727 12.6079 7.72727 12.7273Z" fill="var(--fill-0, black)"/>
</g>
</svg>
