<svg preserveAspectRatio="none" width="100%" height="100%" overflow="visible" style="display: block;" viewBox="0 0 18 18.8182" fill="none" xmlns="http://www.w3.org/2000/svg">
<g id="Group 9103">
<path id="Vector" d="M5.66186 1.63528H12.2088C12.6584 1.63528 13.0265 1.26721 13.0265 0.817638C13.0265 0.368068 12.6584 0 12.2088 0H5.66186C5.21226 0 4.84416 0.368068 4.84416 0.817638C4.84416 1.26721 5.21226 1.63528 5.66186 1.63528Z" fill="var(--fill-0, black)"/>
<path id="Vector_2" d="M13.9089 0.819656C13.9089 1.71879 13.1727 2.45493 12.2734 2.45493H5.72656C4.82734 2.45493 4.09115 1.71879 4.09115 0.819656C1.84049 0.819656 0 2.66 0 4.91047V14.7274C0 16.9779 1.84049 18.8182 4.09115 18.8182H13.9089C16.1595 18.8182 18 16.9779 18 14.7274V4.91047C18 2.66 16.1569 0.819656 13.9089 0.819656ZM7.56705 15.7475H4.29623C3.84663 15.7475 3.47853 15.3794 3.47853 14.9298C3.47853 14.4803 3.84663 14.1122 4.29623 14.1122H7.56968C8.01928 14.1122 8.38738 14.4803 8.38738 14.9298C8.38475 15.3794 8.01665 15.7475 7.56705 15.7475ZM13.9089 11.6593H4.08852C3.63891 11.6593 3.27081 11.2912 3.27081 10.8416C3.27081 10.3921 3.63891 10.024 4.08852 10.024H13.9062C14.3558 10.024 14.7239 10.3921 14.7239 10.8416C14.7266 11.2912 14.3585 11.6593 13.9089 11.6593ZM13.9746 7.56845H4.15951C3.7099 7.56845 3.34181 7.20039 3.34181 6.75082C3.34181 6.30125 3.7099 5.93318 4.15951 5.93318H13.9746C14.4242 5.93318 14.7923 6.30125 14.7923 6.75082C14.7923 7.20039 14.4242 7.56845 13.9746 7.56845Z" fill="var(--fill-0, black)"/>
</g>
</svg>
