<svg preserveAspectRatio="none" width="100%" height="100%" overflow="visible" style="display: block;" viewBox="0 0 20 20" fill="none" xmlns="http://www.w3.org/2000/svg">
<g id="Frame" clip-path="url(#clip0_0_81)">
<path id="Vector" d="M10.9525 3.694V8.09537C10.9525 8.34799 10.8522 8.59027 10.6735 8.7689C10.4949 8.94753 10.2526 9.04788 10 9.04788C9.74738 9.04788 9.5051 8.94753 9.32647 8.7689C9.14784 8.59027 9.04749 8.34799 9.04749 8.09537V3.59768L7.25852 5.38744C7.17008 5.47588 7.06509 5.54603 6.94954 5.59389C6.834 5.64175 6.71015 5.66638 6.58509 5.66638C6.3325 5.66638 6.09026 5.56604 5.91166 5.38744C5.82322 5.299 5.75307 5.19401 5.70521 5.07847C5.65735 4.96292 5.63271 4.83908 5.63271 4.71401C5.63271 4.46142 5.73305 4.21918 5.91166 4.04058L9.95224 0L13.9928 4.04058C14.0813 4.12902 14.1514 4.234 14.1993 4.34955C14.2471 4.4651 14.2718 4.58894 14.2718 4.71401C14.2718 4.83908 14.2471 4.96292 14.1993 5.07847C14.1514 5.19401 14.0813 5.299 13.9928 5.38744C13.9044 5.47588 13.7994 5.54603 13.6838 5.59389C13.5683 5.64175 13.4445 5.66638 13.3194 5.66638C13.1943 5.66638 13.0705 5.64175 12.9549 5.59389C12.8394 5.54603 12.7344 5.47588 12.646 5.38744L10.9525 3.694ZM11.9046 6.6664H18.5718C19.0976 6.6664 19.5239 7.09273 19.5239 7.61852V10.4765H0.476058V7.61852C0.476058 7.09273 0.902379 6.6664 1.42818 6.6664H8.09537V8.09537C8.09021 8.34875 8.13566 8.60062 8.22906 8.83621C8.32246 9.07181 8.46193 9.2864 8.6393 9.46742C8.81667 9.64844 9.02838 9.79225 9.26203 9.89043C9.49568 9.98861 9.74656 10.0392 10 10.0392C10.2534 10.0392 10.5043 9.98861 10.738 9.89043C10.9716 9.79225 11.1833 9.64844 11.3607 9.46742C11.5381 9.2864 11.6775 9.07181 11.7709 8.83621C11.8643 8.60062 11.9098 8.34875 11.9046 8.09537V6.6664ZM19.5239 12.3807V19.0479C19.5239 19.5737 19.0976 20 18.5718 20H1.42818C0.902379 20 0.476058 19.5737 0.476058 19.0479V12.3807H19.5239ZM2.38108 15.7139H7.61931V13.8104H2.38108V15.7147V15.7139Z" fill="var(--fill-0, black)"/>
</g>
<defs>
<clipPath id="clip0_0_81">
<rect width="20" height="20" fill="white"/>
</clipPath>
</defs>
</svg>
