<svg preserveAspectRatio="none" width="100%" height="100%" overflow="visible" style="display: block;" viewBox="0 0 20 20" fill="none" xmlns="http://www.w3.org/2000/svg">
<g id="Frame" clip-path="url(#clip0_0_64)">
<path id="Vector" d="M18.2542 16.0102C18.2006 15.8517 18.2364 15.6797 18.3391 15.5479C19.5364 14.0513 20.2422 12.2086 20.2422 10.2162C20.2422 5.19497 15.7637 1.12305 10.24 1.12305C4.71617 1.12305 0.242188 5.19274 0.242188 10.214C0.242188 15.2352 4.72063 19.3071 10.2444 19.3071C12.2726 19.3071 14.16 18.7576 15.7369 17.8128C15.8687 17.7346 16.0206 17.7056 16.1703 17.7369L18.6429 18.2417C18.8149 18.2774 18.9601 18.1121 18.9042 17.9468L18.2542 16.0102ZM8.87967 14.306H6.15016C5.39743 14.306 4.78541 13.6962 4.78541 12.9412C4.78541 12.1885 5.39519 11.5765 6.15016 11.5765H8.87743C9.63017 11.5765 10.2422 12.1863 10.2422 12.9412C10.2422 13.6962 9.6324 14.306 8.87967 14.306ZM14.3342 9.76053H6.15016C5.39743 9.76053 4.78541 9.15074 4.78541 8.39577C4.78541 7.64304 5.39519 7.03102 6.15016 7.03102H14.332C15.0847 7.03102 15.6967 7.6408 15.6967 8.39577C15.6967 9.15074 15.0869 9.76053 14.3342 9.76053Z" fill="var(--fill-0, black)"/>
</g>
<defs>
<clipPath id="clip0_0_64">
<rect width="20" height="20" fill="white"/>
</clipPath>
</defs>
</svg>
