<svg preserveAspectRatio="none" width="100%" height="100%" overflow="visible" style="display: block;" viewBox="0 0 20 20" fill="none" xmlns="http://www.w3.org/2000/svg">
<g id="Frame" clip-path="url(#clip0_0_62)">
<path id="Vector" d="M1.11843 13.4177V17.906C1.11843 18.8304 1.87256 19.5846 2.79698 19.5846H8.83004V12.2257H2.31044C1.65362 12.2257 1.11843 12.7609 1.11843 13.4177ZM3.69707 13.6731H6.36086V15.4003H3.69707V13.6731ZM17.831 12.2257H11.3114V19.5846H17.3444C18.2689 19.5846 19.023 18.8304 19.023 17.906V13.4177C19.023 12.7609 18.4878 12.2257 17.831 12.2257ZM16.4079 15.4003H13.7441V13.6245H16.4079V15.4003ZM19.3514 5.49931C16.42 3.83293 13.5008 2.1787 10.5694 0.524473C10.3626 0.415002 10.168 0.390675 9.99773 0.439329C9.91259 0.451492 9.82744 0.487983 9.7423 0.524473C6.7136 2.1787 3.68491 3.84509 0.656217 5.49931C-0.14657 5.9372 0.364294 7.0684 1.11843 7.03191V9.11185C1.11843 9.76868 1.65362 10.3039 2.31044 10.3039H8.83004V2.89634L10.1437 2.1787L11.3114 2.83552V10.2917H17.831C18.4878 10.2917 19.023 9.75651 19.023 9.09969V7.03191C19.692 6.94676 20.0934 5.92503 19.3514 5.49931ZM6.3487 7.31167H3.69707V5.71826C4.12279 5.48715 5.93514 4.61139 6.36086 4.38028V5.01278L6.3487 7.31167ZM16.4079 7.31167H13.7441V5.02494L13.7684 4.25865C14.1819 4.50191 15.9821 5.49932 16.4079 5.73042V7.31167Z" fill="var(--fill-0, black)"/>
</g>
<defs>
<clipPath id="clip0_0_62">
<rect width="20" height="20" fill="white"/>
</clipPath>
</defs>
</svg>
