<svg preserveAspectRatio="none" width="100%" height="100%" overflow="visible" style="display: block;" viewBox="0 0 20 20" fill="none" xmlns="http://www.w3.org/2000/svg">
<g id="Frame">
<path id="Vector" d="M12.538 1.43002C15.4061 1.43002 17.7318 3.75509 17.7318 6.6238C17.7318 8.44487 16.7944 10.0463 15.3767 10.974L19.6133 15.9171C19.8133 16.1504 19.9421 16.4362 19.9846 16.7405C20.027 17.0449 19.9814 17.355 19.8529 17.6341C19.7245 17.9133 19.5188 18.1498 19.26 18.3155C19.0013 18.4813 18.7005 18.5694 18.3932 18.5694L15.8352 18.57C16.1169 18.0826 16.194 17.503 16.0548 16.9632L18.3932 16.9626L12.9654 10.6301L14.4967 9.62909C15.1401 9.20988 15.6319 8.59526 15.8999 7.87565C16.1679 7.15604 16.1979 6.36942 15.9854 5.6315C15.773 4.89358 15.3293 4.24331 14.7198 3.77634C14.1102 3.30937 13.3668 3.05035 12.599 3.03738C12.2144 2.48798 11.7447 2.00342 11.2075 1.60195C11.6417 1.4874 12.0889 1.42961 12.538 1.43002ZM11.0024 11.7929L14.5374 15.9171C14.7374 16.1505 14.8662 16.4364 14.9087 16.7408C14.9511 17.0452 14.9053 17.3554 14.7768 17.6346C14.6482 17.9138 14.4423 18.1503 14.1834 18.316C13.9245 18.4817 13.6236 18.5696 13.3162 18.5694H1.60677C1.2995 18.5694 0.998671 18.4813 0.73995 18.3155C0.481229 18.1498 0.275464 17.9133 0.147049 17.6341C0.0186341 17.355 -0.0270467 17.0449 0.015422 16.7405C0.0578906 16.4362 0.186728 16.1504 0.386661 15.9171L3.92167 11.7929C4.96347 12.5086 6.19812 12.8907 7.46203 12.8888C8.77587 12.8888 9.99545 12.4844 11.0024 11.7929ZM7.46203 1.43002C10.3302 1.43002 12.6558 3.75509 12.6558 6.6238C12.6558 9.49198 10.3302 11.8176 7.46203 11.8176C4.59332 11.8176 2.26825 9.49198 2.26825 6.6238C2.26825 3.75509 4.59332 1.43002 7.46203 1.43002Z" fill="var(--fill-0, black)"/>
</g>
</svg>
