<svg preserveAspectRatio="none" width="100%" height="100%" overflow="visible" style="display: block;" viewBox="0 0 20 20" fill="none" xmlns="http://www.w3.org/2000/svg">
<g id="Frame">
<path id="Vector" d="M18.4218 6.1941C18.4218 6.18477 18.4218 6.17565 18.4127 6.16632C18.3574 5.98144 18.2834 5.80609 18.2003 5.63965L16.3711 1.33447C16.1587 0.844905 15.7245 0.530684 15.244 0.530684H2.98405C2.47603 0.530684 2.01403 0.881798 1.82003 1.41759L0.157111 6.07388C0.120218 6.16632 0.101772 6.26788 0.083114 6.36033C0.0277753 6.58211 0 6.82233 0 7.06256C0 8.79926 1.40425 10.2037 3.14116 10.2037C4.5454 10.2037 5.72787 9.28925 6.13432 8.02346C6.59633 9.29837 7.82502 10.2037 9.25704 10.2037C10.6891 10.2037 11.9177 9.29837 12.3797 8.02346H12.3982C12.8046 9.28925 13.9871 10.2037 15.3914 10.2037C17.1283 10.2037 18.5325 8.79947 18.5325 7.06256C18.5421 6.77611 18.4958 6.48033 18.4218 6.1941ZM14.8189 5.01142H3.7325C3.32605 5.01142 2.99338 4.67875 2.99338 4.2723C2.99338 3.86585 3.32583 3.53318 3.7325 3.53318H14.8189C15.2253 3.53318 15.558 3.86585 15.558 4.2723C15.558 4.67875 15.2253 5.01142 14.8189 5.01142ZM15.4009 11.7002C14.2553 11.7002 13.1835 11.2844 12.3613 10.5639C11.5113 11.2846 10.4213 11.7002 9.26636 11.7002C8.11167 11.7002 7.03056 11.2844 6.18076 10.5731C5.35852 11.2844 4.29606 11.7002 3.15049 11.7002C2.42981 11.7002 1.75536 11.534 1.14557 11.2382V17.0216C1.14557 17.6314 1.64447 18.1301 2.25426 18.1301H16.2969C16.9067 18.1301 17.4054 17.6312 17.4054 17.0216V11.2382C16.7958 11.534 16.1214 11.7002 15.4009 11.7002Z" fill="var(--fill-0, black)"/>
</g>
</svg>
