<svg preserveAspectRatio="none" width="100%" height="100%" overflow="visible" style="display: block;" viewBox="0 0 20 20" fill="none" xmlns="http://www.w3.org/2000/svg">
<g id="Frame">
<path id="Vector" d="M9.51172 6.78574C9.51172 8.29125 8.29125 9.51172 6.78574 9.51172H4.64004C3.13453 9.51172 1.91406 8.29125 1.91406 6.78574V4.64004C1.91406 3.13453 3.13453 1.91406 4.64004 1.91406H6.78574C8.29125 1.91406 9.51172 3.13453 9.51172 4.64004V6.78574ZM9.51172 15.36C9.51172 16.8655 8.29125 18.0859 6.78574 18.0859H4.64004C3.13453 18.0859 1.91406 16.8655 1.91406 15.36V13.2143C1.91406 11.7088 3.13453 10.4883 4.64004 10.4883H6.78574C8.29125 10.4883 9.51172 11.7088 9.51172 13.2143V15.36ZM18.0859 6.78574C18.0859 8.29125 16.8655 9.51172 15.36 9.51172H13.2143C11.7088 9.51172 10.4883 8.29125 10.4883 6.78574V4.64004C10.4883 3.13453 11.7088 1.91406 13.2143 1.91406H15.36C16.8655 1.91406 18.0859 3.13453 18.0859 4.64004V6.78574ZM14.2715 10.4219C12.1648 10.4219 10.457 12.1297 10.457 14.2363C10.457 16.343 12.1648 18.0508 14.2715 18.0508C16.3781 18.0508 18.0859 16.343 18.0859 14.2363C18.0859 12.1297 16.3781 10.4219 14.2715 10.4219ZM14.2715 16.4714C13.0371 16.4714 12.0364 15.4707 12.0364 14.2363C12.0364 13.002 13.0371 12.0013 14.2715 12.0013C15.5059 12.0013 16.5065 13.002 16.5065 14.2363C16.5065 15.4707 15.5059 16.4714 14.2715 16.4714Z" fill="var(--fill-0, black)"/>
</g>
</svg>
