<svg preserveAspectRatio="none" width="100%" height="100%" overflow="visible" style="display: block;" viewBox="0 0 20 20" fill="none" xmlns="http://www.w3.org/2000/svg">
<g id="Frame" clip-path="url(#clip0_0_37)">
<path id="Vector" d="M1.08533 5.464C2.73867 2.22133 6.11 0 10 0C15.5227 0 20 4.47733 20 10C20 11.1593 19.8027 12.2727 19.44 13.308L14.298 10.7373C14.1478 10.6624 13.9749 10.6468 13.8137 10.6938C13.6526 10.7407 13.5151 10.8468 13.4287 10.9907L11.746 13.794L5.63133 10.7373C5.47406 10.6647 5.29468 10.6561 5.13119 10.7134C4.96771 10.7707 4.83295 10.8895 4.75548 11.0444C4.678 11.1994 4.66388 11.3784 4.71612 11.5436C4.76836 11.7087 4.88285 11.8471 5.03533 11.9293L11.702 15.2627C11.8522 15.3376 12.0251 15.3532 12.1863 15.3062C12.3474 15.2593 12.4849 15.1532 12.5713 15.0093L14.254 12.206L18.914 14.536C17.2613 17.7787 13.8907 20 10 20C4.47733 20 0 15.5227 0 10C0 8.84067 0.197333 7.72733 0.56 6.692L5.702 9.26267C5.85225 9.33783 6.02535 9.3535 6.18666 9.30653C6.34796 9.25956 6.48559 9.15342 6.572 9.00933L8.24133 6.22667L14.3453 9.584C14.4221 9.62801 14.5069 9.65628 14.5948 9.66717C14.6826 9.67806 14.7718 9.67134 14.857 9.64741C14.9422 9.62349 15.0218 9.58283 15.0912 9.5278C15.1605 9.47278 15.2182 9.4045 15.2609 9.32695C15.3035 9.24939 15.3303 9.16412 15.3397 9.07609C15.3491 8.98807 15.3408 8.89906 15.3154 8.81427C15.29 8.72947 15.248 8.65058 15.1918 8.5822C15.1356 8.51382 15.0663 8.45732 14.988 8.416L8.32133 4.74933C8.17015 4.66611 7.99258 4.64476 7.82598 4.68977C7.65937 4.73477 7.51671 4.84264 7.428 4.99067L5.74667 7.79333L1.08667 5.46333L1.08533 5.464Z" fill="var(--fill-0, black)"/>
</g>
<defs>
<clipPath id="clip0_0_37">
<rect width="20" height="20" fill="white"/>
</clipPath>
</defs>
</svg>
