<svg preserveAspectRatio="none" width="100%" height="100%" overflow="visible" style="display: block;" viewBox="0 0 20 20" fill="none" xmlns="http://www.w3.org/2000/svg">
<g id="Frame" clip-path="url(#clip0_0_84)">
<path id="Vector" d="M19.9406 2.46849C19.7971 1.03391 18.9364 0.316626 17.5018 0.316626H4.87755C3.29952 0.316626 2.0084 1.46428 2.0084 3.18577V15.5231H0V16.9577C0 18.6792 1.14766 19.6834 2.72569 19.6834H14.9196C15.2065 19.6834 15.6369 19.5399 15.9238 19.5399C16.928 19.1095 17.5018 18.2488 17.5018 16.9577V6.77221V6.34184H19.7971C19.9406 4.90726 20.084 3.61615 19.9406 2.46849ZM13.1981 18.2488H2.86915C1.86495 18.2488 1.29112 17.675 1.29112 16.8142V16.6708H12.9112C13.0546 17.2446 13.1981 17.675 13.3415 18.2488H13.1981ZM4.87755 9.78481C4.87755 9.35444 5.16447 9.21098 5.59484 9.21098H9.61165C10.042 9.21098 10.3289 9.4979 10.3289 9.78481C10.3289 10.2152 10.042 10.5021 9.61165 10.5021H5.45138C5.16447 10.3586 4.87755 10.2152 4.87755 9.78481ZM13.7719 6.91567H5.45138C5.02101 6.91567 4.73409 6.62875 4.73409 6.34184C4.87755 5.91146 5.02101 5.62455 5.45138 5.62455H13.7719C14.3457 5.62455 14.7761 5.91146 14.7761 6.34184C14.7761 6.62875 14.4892 6.91567 13.7719 6.91567ZM18.6495 4.90726H17.6453V2.32503C17.6453 2.03811 17.9322 1.89466 18.0756 1.89466C18.3625 1.89466 18.506 2.18157 18.506 2.32503V4.90726H18.6495Z" fill="var(--fill-0, black)"/>
</g>
<defs>
<clipPath id="clip0_0_84">
<rect width="20" height="20" fill="white"/>
</clipPath>
</defs>
</svg>
