<svg preserveAspectRatio="none" width="100%" height="100%" overflow="visible" style="display: block;" viewBox="0 0 20 20" fill="none" xmlns="http://www.w3.org/2000/svg">
<g id="Frame">
<path id="Vector" d="M19.08 17.26C19.08 17.5133 19.0367 17.75 18.95 17.97C18.8633 18.19 18.74 18.3833 18.58 18.55C18.42 18.7167 18.2333 18.8467 18.02 18.94C17.8067 19.0333 17.5733 19.08 17.32 19.08H2.8C2.54667 19.08 2.30667 19.0333 2.08 18.94C1.85333 18.8467 1.65333 18.7167 1.48 18.55C1.30667 18.3833 1.17 18.19 1.07 17.97C0.97 17.75 0.92 17.5133 0.92 17.26V7.28C0.92 6.77333 1.09667 6.34333 1.45 5.99C1.80333 5.63667 2.23333 5.46 2.74 5.46H17.26C17.7667 5.46 18.1967 5.63667 18.55 5.99C18.9033 6.34333 19.08 6.77333 19.08 7.28V10H14.54C14.0333 10 13.6033 10.1733 13.25 10.52C12.8967 10.8667 12.72 11.2933 12.72 11.8C12.7333 12.1467 12.8067 12.4533 12.94 12.72C13.0467 12.9467 13.2233 13.1533 13.47 13.34C13.7167 13.5267 14.0733 13.62 14.54 13.62H19.08V17.26ZM16.36 4.54H7.28C8 4.16667 8.68 3.80667 9.32 3.46C9.88 3.16667 10.4333 2.87333 10.98 2.58C11.5267 2.28667 11.9533 2.06 12.26 1.9C12.7267 1.64667 13.1433 1.53 13.51 1.55C13.8767 1.57 14.1867 1.63333 14.44 1.74C14.7333 1.88667 14.9867 2.08 15.2 2.32L16.36 4.54ZM13.64 11.8C13.64 11.5467 13.7267 11.3333 13.9 11.16C14.0733 10.9867 14.2867 10.9 14.54 10.9C14.7933 10.9 15.0067 10.9867 15.18 11.16C15.3533 11.3333 15.44 11.5467 15.44 11.8C15.44 12.0533 15.3533 12.27 15.18 12.45C15.0067 12.63 14.7933 12.72 14.54 12.72C14.2867 12.72 14.0733 12.63 13.9 12.45C13.7267 12.27 13.64 12.0533 13.64 11.8Z" fill="var(--fill-0, black)"/>
</g>
</svg>
