<svg preserveAspectRatio="none" width="100%" height="100%" overflow="visible" style="display: block;" viewBox="0 0 20 20" fill="none" xmlns="http://www.w3.org/2000/svg">
<g id="Frame" clip-path="url(#clip0_0_47)">
<path id="Vector" d="M20 10C20 12.6522 18.9464 15.1957 17.0711 17.0711C15.1957 18.9464 12.6522 20 10 20C7.34784 20 4.8043 18.9464 2.92893 17.0711C1.05357 15.1957 0 12.6522 0 10C0 7.34784 1.05357 4.8043 2.92893 2.92893C4.8043 1.05357 7.34784 0 10 0C12.6522 0 15.1957 1.05357 17.0711 2.92893C18.9464 4.8043 20 7.34784 20 10Z" fill="var(--fill-0, black)"/>
<path id="Vector_2" d="M10 5.71429C9.01429 5.71429 8.21429 6.51429 8.21429 7.5C8.21429 7.78416 8.1014 8.05668 7.90047 8.25761C7.69954 8.45855 7.42702 8.57143 7.14286 8.57143C6.8587 8.57143 6.58617 8.45855 6.38524 8.25761C6.18431 8.05668 6.07143 7.78416 6.07143 7.5C6.07149 6.76917 6.27542 6.05285 6.66028 5.43156C7.04513 4.81027 7.59567 4.30865 8.24998 3.9831C8.90429 3.65754 9.63645 3.52096 10.3641 3.5887C11.0918 3.65643 11.7862 3.92581 12.3692 4.36655C12.9521 4.80728 13.4006 5.40189 13.6642 6.08354C13.9278 6.76519 13.996 7.50685 13.8611 8.22513C13.7263 8.94342 13.3938 9.60985 12.901 10.1495C12.4081 10.6892 11.7746 11.0807 11.0714 11.28C11.0714 11.5642 10.9585 11.8367 10.7576 12.0376C10.5567 12.2385 10.2842 12.3514 10 12.3514C9.71584 12.3514 9.44332 12.2385 9.24239 12.0376C9.04145 11.8367 8.92857 11.5642 8.92857 11.28V10.3571C8.92857 10.2164 8.95628 10.0771 9.01013 9.94713C9.06397 9.81713 9.14289 9.69902 9.24239 9.59953C9.34188 9.50004 9.45999 9.42112 9.58998 9.36727C9.71997 9.31343 9.8593 9.28571 10 9.28571C10.2345 9.28571 10.4667 9.23953 10.6834 9.14979C10.9 9.06004 11.0969 8.92851 11.2627 8.76269C11.4285 8.59687 11.56 8.40002 11.6498 8.18336C11.7395 7.96671 11.7857 7.7345 11.7857 7.5C11.7857 7.2655 11.7395 7.03329 11.6498 6.81664C11.56 6.59998 11.4285 6.40313 11.2627 6.23731C11.0969 6.07149 10.9 5.93996 10.6834 5.85022C10.4667 5.76047 10.2345 5.71429 10 5.71429ZM10 16.4286C10.3789 16.4286 10.7422 16.2781 11.0102 16.0102C11.2781 15.7422 11.4286 15.3789 11.4286 15C11.4286 14.6211 11.2781 14.2578 11.0102 13.9898C10.7422 13.7219 10.3789 13.5714 10 13.5714C9.62112 13.5714 9.25776 13.7219 8.98985 13.9898C8.72194 14.2578 8.57143 14.6211 8.57143 15C8.57143 15.3789 8.72194 15.7422 8.98985 16.0102C9.25776 16.2781 9.62112 16.4286 10 16.4286Z" fill="var(--fill-0, white)"/>
</g>
<defs>
<clipPath id="clip0_0_47">
<rect width="20" height="20" fill="white"/>
</clipPath>
</defs>
</svg>
