<svg preserveAspectRatio="none" width="100%" height="100%" overflow="visible" style="display: block;" viewBox="0 0 20 20" fill="none" xmlns="http://www.w3.org/2000/svg">
<g id="Frame">
<path id="Vector" d="M17.605 2.79517C18.3267 2.79517 18.9035 2.97855 19.3353 3.34532C19.7672 3.71209 19.9831 4.26817 19.9831 5.01354V14.8631C19.9831 15.1825 19.9239 15.4842 19.8056 15.7682C19.6873 16.0522 19.5246 16.3006 19.3176 16.5136C19.1105 16.7265 18.868 16.8951 18.5899 17.0194C18.3119 17.1436 18.0191 17.2057 17.7115 17.2057H2.23612C1.9285 17.2057 1.63864 17.1465 1.36652 17.0282C1.0944 16.9099 0.85777 16.7532 0.656638 16.5579C0.455506 16.3627 0.295783 16.135 0.17747 15.8747C0.0591568 15.6144 2.92063e-07 15.3364 2.92063e-07 15.0406V4.97804C2.92063e-07 4.33915 0.195217 3.81562 0.58565 3.40744C0.976083 2.99926 1.52624 2.79517 2.23612 2.79517H17.605ZM4.9869 6.07836C4.7621 6.07836 4.54914 6.11977 4.34801 6.20258C4.14688 6.2854 3.96941 6.40076 3.8156 6.54865C3.66179 6.69654 3.54052 6.87401 3.45179 7.08106C3.36305 7.28811 3.31868 7.50994 3.31868 7.74657C3.31868 7.9832 3.36305 8.20208 3.45179 8.40321C3.54052 8.60434 3.66179 8.78181 3.8156 8.93562C3.96941 9.08942 4.14688 9.2107 4.34801 9.29943C4.54914 9.38817 4.7621 9.43253 4.9869 9.43253C5.23536 9.43253 5.46311 9.38817 5.67016 9.29943C5.8772 9.2107 6.05467 9.08942 6.20257 8.93562C6.35046 8.78181 6.46877 8.60434 6.5575 8.40321C6.64624 8.20208 6.69061 7.9832 6.69061 7.74657C6.69061 7.26149 6.53088 6.86218 6.21144 6.54865C5.89199 6.23512 5.48381 6.07836 4.9869 6.07836ZM7.77317 12.2188C7.77317 11.994 7.7288 11.7781 7.64007 11.571C7.55133 11.364 7.43302 11.1865 7.28513 11.0386C7.13724 10.8907 6.95977 10.7724 6.75272 10.6837C6.54567 10.595 6.32975 10.5506 6.10496 10.5506H3.88659C3.42516 10.5506 3.03473 10.7133 2.71529 11.0386C2.39584 11.364 2.23612 11.7574 2.23612 12.2188V12.2898V13.887H7.77317V12.2898V12.2188ZM16.0078 13.9758C16.2444 13.9758 16.4189 13.9166 16.5313 13.7983C16.6437 13.68 16.6999 13.538 16.6999 13.3724C16.6999 13.2067 16.6348 13.0618 16.5047 12.9376C16.3745 12.8133 16.1911 12.7512 15.9545 12.7512H10.6659C10.4293 12.7512 10.2518 12.8133 10.1335 12.9376C10.0152 13.0618 9.95605 13.2067 9.95605 13.3724C9.95605 13.538 10.0152 13.68 10.1335 13.7983C10.2518 13.9166 10.4234 13.9758 10.6482 13.9758H16.0078ZM16.0255 11.6864C16.2621 11.6864 16.4337 11.6272 16.5402 11.5089C16.6467 11.3906 16.6999 11.2486 16.6999 11.083C16.6999 10.9055 16.6496 10.7576 16.549 10.6393C16.4485 10.521 16.2799 10.4619 16.0433 10.4619H10.6127C10.3761 10.4619 10.2045 10.521 10.098 10.6393C9.99154 10.7576 9.9383 10.9055 9.9383 11.083C9.9383 11.2486 9.98858 11.3906 10.0892 11.5089C10.1897 11.6272 10.3583 11.6864 10.5949 11.6864H16.0255ZM16.0433 9.43253C16.2207 9.43253 16.3745 9.37338 16.5047 9.25506C16.6348 9.13675 16.6999 8.99477 16.6999 8.82914C16.6999 8.6635 16.6348 8.53039 16.5047 8.42983C16.3745 8.32926 16.2207 8.27898 16.0433 8.27898H12.4406C12.2632 8.27898 12.1123 8.32926 11.9881 8.42983C11.8638 8.53039 11.8017 8.6635 11.8017 8.82914C11.8017 8.99477 11.8638 9.13675 11.9881 9.25506C12.1123 9.37338 12.2632 9.43253 12.4406 9.43253H16.0433Z" fill="var(--fill-0, black)"/>
</g>
</svg>
