<svg preserveAspectRatio="none" width="100%" height="100%" overflow="visible" style="display: block;" viewBox="0 0 20 20" fill="none" xmlns="http://www.w3.org/2000/svg">
<g id="Frame">
<path id="Vector" d="M14.3251 2.11289V18.008C14.3251 18.232 14.2361 18.4468 14.0778 18.6051C13.9194 18.7635 13.7046 18.8524 13.4807 18.8524H2.37223C2.26133 18.8524 2.15152 18.8306 2.04907 18.7882C1.94662 18.7457 1.85352 18.6835 1.77511 18.6051C1.69669 18.5267 1.63449 18.4336 1.59205 18.3312C1.54962 18.2287 1.52777 18.1189 1.52777 18.008V4.01777C1.52786 3.81853 1.59839 3.62574 1.7269 3.47349C1.8554 3.32123 2.03361 3.21931 2.23 3.18576L13.3367 1.28C13.4579 1.25928 13.5822 1.2653 13.7008 1.29761C13.8195 1.32993 13.9296 1.38777 14.0236 1.4671C14.1176 1.54642 14.1931 1.64531 14.2449 1.75686C14.2966 1.86841 14.3234 1.98991 14.3233 2.11289H14.3251ZM18.542 3.6418V18.008C18.542 18.1189 18.5202 18.2287 18.4777 18.3312C18.4353 18.4336 18.3731 18.5267 18.2947 18.6051C18.2163 18.6835 18.1232 18.7457 18.0207 18.7882C17.9183 18.8306 17.8085 18.8525 17.6976 18.8525H16.5829C16.472 18.8525 16.3622 18.8306 16.2597 18.7882C16.1573 18.7458 16.0642 18.6836 15.9858 18.6051C15.9074 18.5267 15.8452 18.4336 15.8027 18.3312C15.7603 18.2287 15.7384 18.1189 15.7384 18.008V3.94844C15.7384 3.76351 15.7991 3.58369 15.9112 3.43661C16.0233 3.28952 16.1806 3.18329 16.3589 3.13424L17.4736 2.82756C17.5989 2.79307 17.7305 2.78799 17.8582 2.81272C17.9858 2.83744 18.106 2.8913 18.2094 2.9701C18.3128 3.0489 18.3966 3.15051 18.4543 3.26702C18.512 3.38352 18.542 3.51177 18.542 3.64178V3.6418ZM11.126 14.8533H4.72689V16.5982H11.126V14.8533ZM11.126 10.0542H4.72689V11.8H11.126V10.0533V10.0542ZM4.72689 5.25598V7.00088H11.126V5.25598H4.72689Z" fill="var(--fill-0, black)"/>
</g>
</svg>
