<svg preserveAspectRatio="none" width="100%" height="100%" overflow="visible" style="display: block;" viewBox="0 0 20 20" fill="none" xmlns="http://www.w3.org/2000/svg">
<g id="Frame" clip-path="url(#clip0_0_100)">
<path id="Vector" d="M12.3206 11.5472H7.67974C7.25433 11.5472 6.90623 11.8953 6.90623 12.3207C6.90623 12.7461 7.25433 13.0941 7.67974 13.0941H12.3206C12.746 13.0941 13.0941 12.7461 13.0941 12.3207C13.0941 11.8953 12.746 11.5472 12.3206 11.5472Z" fill="var(--fill-0, black)"/>
<path id="Vector_2" d="M7.67974 8.45323H10.0002C10.4256 8.45323 10.7736 8.10517 10.7736 7.67975C10.7736 7.25432 10.4256 6.90626 10.0002 6.90626H7.67974C7.25433 6.90626 6.90623 7.25432 6.90623 7.67975C6.90623 8.10517 7.25433 8.45323 7.67974 8.45323Z" fill="var(--fill-0, black)"/>
<path id="Vector_3" d="M9.99999 0.011852C4.48369 0.011852 0.011842 4.4837 0.011842 10C0.011842 15.5163 4.48369 19.9882 9.99999 19.9882C15.5163 19.9882 19.9881 15.5163 19.9881 10C19.9881 4.4837 15.5163 0.011852 9.99999 0.011852ZM16.1881 12.1931C16.1881 14.4006 14.3913 16.1877 12.1683 16.1877H7.83638C5.61494 16.1877 3.81193 14.4006 3.81193 12.1931V7.80851C3.81346 5.60098 5.61494 3.81234 7.83638 3.81234H9.86478C12.0878 3.81234 13.8676 5.47223 13.8676 7.67975C13.8966 8.09397 14.269 8.45323 14.694 8.45323H15.3879C15.8322 8.45323 16.1881 8.91925 16.1881 9.36053V12.1931Z" fill="var(--fill-0, black)"/>
</g>
<defs>
<clipPath id="clip0_0_100">
<rect width="20" height="20" fill="white"/>
</clipPath>
</defs>
</svg>
