<svg preserveAspectRatio="none" width="100%" height="100%" overflow="visible" style="display: block;" viewBox="0 0 20 20" fill="none" xmlns="http://www.w3.org/2000/svg">
<g id="Frame" clip-path="url(#clip0_0_10)">
<path id="Vector" d="M10 0C4.47363 0 0 4.47363 0 10C0 15.5264 4.47363 20 10 20C15.5264 20 20 15.5273 20 10C20 4.47266 15.5273 0 10 0ZM12.6836 9.94746H10.9475V16.2109H8.36934V9.94746H7.05254V7.79004H8.36855V6.47402C8.36855 4.73789 9.10547 3.68496 11.1576 3.68496H12.8937V5.84258H11.8408C11.0518 5.84258 10.9992 6.15859 10.9992 6.68418V7.73711H12.9461L12.683 9.94766L12.6836 9.94746Z" fill="var(--fill-0, white)"/>
</g>
<defs>
<clipPath id="clip0_0_10">
<rect width="20" height="20" fill="white"/>
</clipPath>
</defs>
</svg>
