<svg preserveAspectRatio="none" width="100%" height="100%" overflow="visible" style="display: block;" viewBox="0 0 20 20" fill="none" xmlns="http://www.w3.org/2000/svg">
<g id="Frame" clip-path="url(#clip0_0_4)">
<path id="Vector" d="M0 10C0 12.6522 1.05357 15.1957 2.92893 17.0711C4.8043 18.9464 7.34784 20 10 20C12.6522 20 15.1957 18.9464 17.0711 17.0711C18.9464 15.1957 20 12.6522 20 10C20 7.34784 18.9464 4.8043 17.0711 2.92893C15.1957 1.05357 12.6522 0 10 0C7.34784 0 4.8043 1.05357 2.92893 2.92893C1.05357 4.8043 0 7.34784 0 10Z" fill="var(--fill-0, white)"/>
<path id="Vector_2" d="M10 7C8.38462 7 7 8.30769 7 10C7 11.6154 8.30769 13 10 13C11.6154 13 13 11.6923 13 10C13 8.38462 11.6154 7 10 7ZM10 11.9231C8.92308 11.9231 8.07692 11.0769 8.07692 10C8.07692 8.92308 8.92308 8.07692 10 8.07692C11.0769 8.07692 11.9231 8.92308 11.9231 10C11.9231 11.0769 11.0769 11.9231 10 11.9231ZM13.0769 6.23077C12.6923 6.23077 12.3846 6.53846 12.3846 6.92308C12.3846 7.30769 12.6923 7.61538 13.0769 7.61538C13.4615 7.61538 13.7692 7.30769 13.7692 6.92308C13.7692 6.53846 13.4615 6.23077 13.0769 6.23077Z" fill="var(--fill-0, black)"/>
<path id="Vector_3" d="M12.6923 4.23077H12.3846C11.4615 4.15385 8.53846 4.15385 7.61538 4.23077C5.84615 4.15385 4.30769 5.53846 4.23077 7.30769V7.61538C4.15385 8.53846 4.15385 11.4615 4.23077 12.3846C4.15385 14.1538 5.53846 15.6923 7.30769 15.7692H7.61538C8.53846 15.8462 11.4615 15.8462 12.3846 15.7692C14.1538 15.8462 15.6923 14.4615 15.7692 12.6923V12.3846V7.61538C15.8462 5.84615 14.4615 4.30769 12.6923 4.23077ZM14.5385 13.3846C14.3077 13.9231 13.9231 14.3077 13.4615 14.4615C11.2308 14.7692 8.92308 14.7692 6.61539 14.4615C6.07692 14.2308 5.69231 13.8462 5.53846 13.3846C5.30769 12.2308 5.23077 11.0769 5.30769 10C5.23077 8.84615 5.30769 7.69231 5.53846 6.61539C5.76923 6.07692 6.15385 5.69231 6.61539 5.53846C8.84615 5.23077 11.1538 5.23077 13.4615 5.53846C14 5.76923 14.3846 6.15385 14.5385 6.61539C14.7692 7.76923 14.8462 8.92308 14.7692 10C14.8462 11.1538 14.7692 12.3077 14.5385 13.3846Z" fill="var(--fill-0, black)"/>
</g>
<defs>
<clipPath id="clip0_0_4">
<rect width="20" height="20" fill="white"/>
</clipPath>
</defs>
</svg>
