<svg preserveAspectRatio="none" width="100%" height="100%" overflow="visible" style="display: block;" viewBox="0 0 20 20" fill="none" xmlns="http://www.w3.org/2000/svg">
<g id="Frame" clip-path="url(#clip0_0_8)">
<path id="Vector" d="M9.93333 0.4C12.6 0.4 14.8667 1.33333 16.7333 3.2C18.6 5.06667 19.5333 7.33333 19.5333 10C19.5333 12.64 18.6 14.9 16.7333 16.78C14.8667 18.66 12.6 19.6 9.93333 19.6C7.29333 19.6 5.03333 18.66 3.15333 16.78C1.27333 14.9 0.333333 12.64 0.333333 10C0.333333 7.33333 1.27333 5.06667 3.15333 3.2C5.03333 1.33333 7.29333 0.4 9.93333 0.4ZM12.5333 14.12V12.64C12.0533 12.96 11.5867 13.12 11.1333 13.12C10.92 13.12 10.68 13.0533 10.4133 12.92C10.2533 12.8133 10.16 12.6933 10.1333 12.56C10.0533 12.4 10.0133 12.0533 10.0133 11.52V9.16H12.2133V7.68H10.0133V5.32H8.73333C8.62667 5.88 8.52 6.28 8.41333 6.52C8.28 6.81333 8.06667 7.08 7.77333 7.32C7.48 7.56 7.17333 7.73333 6.85333 7.84V9.16H7.85333V12.4C7.85333 12.7733 7.90667 13.0933 8.01333 13.36C8.09333 13.5733 8.25333 13.7867 8.49333 14C8.68 14.1867 8.94667 14.3467 9.29333 14.48C9.72 14.5867 10.0933 14.64 10.4133 14.64C10.7867 14.64 11.1333 14.6 11.4533 14.52C11.8267 14.44 12.1867 14.3067 12.5333 14.12Z" fill="var(--fill-0, white)"/>
</g>
<defs>
<clipPath id="clip0_0_8">
<rect width="20" height="20" fill="white"/>
</clipPath>
</defs>
</svg>
