<svg preserveAspectRatio="none" width="100%" height="100%" overflow="visible" style="display: block;" viewBox="0 0 24 24" fill="none" xmlns="http://www.w3.org/2000/svg">
<g id="Frame">
<path id="Vector" d="M14.3689 13.96C13.1881 14.9061 12.4513 15.3754 11.7163 15.3754C11.0105 15.3754 10.2978 14.9357 9.19556 14.0768L2.63441 19.8508H21.1119L14.4438 13.9037C14.4194 13.9217 14.3919 13.9438 14.3689 13.96H14.3689ZM6.58718 12.0587C5.02947 10.8573 3.23284 9.4672 1.50814 8.10374V18.988C1.50814 19.0229 1.52473 19.0521 1.52823 19.0844L8.14299 13.263C7.6637 12.8887 7.14945 12.493 6.58718 12.0587ZM22.3939 19.2409C22.4205 19.162 22.4453 19.0792 22.4453 18.988V7.64178C20.3748 9.25216 17.3781 11.5862 15.4854 13.0797L22.3939 19.2409Z" fill="var(--fill-0, black)"/>
<path id="Vector_2" d="M21.1368 4.14917H2.81675C2.33909 4.14917 1.50816 4.98098 1.50816 5.45773V6.48891C3.43785 8.02512 5.53375 9.64208 7.30952 11.0118C8.2888 11.7677 9.16636 12.4468 9.85909 12.9877C11.726 14.452 11.726 14.452 13.6317 12.9284C15.3551 11.5509 19.9918 7.94278 22.4454 6.03446V5.45911C22.4454 4.97974 21.6149 4.14917 21.1368 4.14917H21.1368Z" fill="var(--fill-0, black)"/>
</g>
</svg>
