<svg preserveAspectRatio="none" width="100%" height="100%" overflow="visible" style="display: block;" viewBox="0 0 24 24" fill="none" xmlns="http://www.w3.org/2000/svg">
<g id="Frame">
<path id="Vector" d="M6.8798 1.84463C10.5431 1.84463 13.647 3.46395 13.7578 5.82923V18.0083C13.7578 20.4437 10.6096 22.1221 6.8798 22.1221C3.15001 22.1221 2.32458e-07 20.4437 2.32458e-07 18.0083V5.95848C2.32458e-07 3.52488 3.15001 1.84463 6.8798 1.84463ZM16.2375 8.75582C19.9008 8.75582 23.0047 10.3751 23.1155 12.7404V16.869C23.1155 19.3063 19.9673 20.9829 16.2375 20.9829C15.7427 20.9829 15.2589 20.9533 14.7881 20.8961V18.9555C15.2441 19.022 15.7297 19.0608 16.2375 19.0608C18.9813 19.0608 21.0973 17.9658 21.1915 16.941L21.1952 16.8672V15.7686C20.4086 16.2468 19.4226 16.5995 18.3148 16.8026C17.1504 17.0088 15.9619 17.0412 14.7881 16.8986V14.9543C15.8453 15.1113 16.921 15.0957 17.9732 14.9081C19.9507 14.5499 21.1952 13.6396 21.1952 12.8678C21.1952 11.8227 19.0459 10.6761 16.2375 10.6761C15.7297 10.6761 15.2441 10.713 14.7881 10.7814V8.8426C15.2681 8.78352 15.7538 8.75582 16.2375 8.75582ZM11.8375 16.9078C11.0509 17.386 10.0649 17.7387 8.95704 17.9418C8.27139 18.0638 7.57622 18.1244 6.8798 18.1228C6.1837 18.1246 5.48759 18.0637 4.80257 17.9418C3.69471 17.7387 2.70872 17.386 1.92214 16.9078V18.0083L1.92583 18.0803C2.02 19.1069 4.13601 20.2 6.8798 20.2C9.68638 20.2 11.8375 19.0552 11.8375 18.0083V16.9078ZM11.8375 12.8826C11.0509 13.3608 10.0649 13.7153 8.95704 13.9166C8.29232 14.0366 7.59253 14.0975 6.8798 14.0975C6.1837 14.0975 5.48759 14.0385 4.80257 13.9147C3.69471 13.7153 2.70872 13.3608 1.92214 12.8826V14.0089L1.92583 14.0828C2.00338 14.8398 3.22941 15.7021 5.14416 16.0492C5.69624 16.1489 6.28156 16.2006 6.8798 16.2006C7.47989 16.2006 8.06337 16.1489 8.61545 16.0492C10.593 15.6892 11.8375 14.7807 11.8375 14.0089V12.8826ZM1.92214 8.85737V9.9837L1.92583 10.0594C2.00338 10.8146 3.22941 11.6769 5.14416 12.024C5.69624 12.1237 6.28156 12.1754 6.8798 12.1754C7.47989 12.1754 8.06337 12.1237 8.61545 12.024C10.593 11.6658 11.8375 10.7555 11.8375 9.9837V8.85737C11.0509 9.33375 10.0649 9.68827 8.95704 9.88953C8.29232 10.0114 7.59253 10.0742 6.8798 10.0742C6.1837 10.0742 5.48759 10.0132 4.80257 9.88953C3.69471 9.69011 2.70872 9.3356 1.92214 8.85737ZM6.8798 3.76676C4.07323 3.76676 1.92214 4.91155 1.92214 5.95848C1.92214 6.73029 3.16663 7.63873 5.14416 7.99878C5.69624 8.09849 6.28156 8.15019 6.8798 8.15019C7.47989 8.15019 8.06337 8.09849 8.61545 7.99878C10.593 7.63873 11.8375 6.73029 11.8375 5.95848C11.8375 4.91155 9.68823 3.76676 6.8798 3.76676Z" fill="var(--fill-0, black)"/>
</g>
</svg>
