<svg preserveAspectRatio="none" width="100%" height="100%" overflow="visible" style="display: block;" viewBox="0 0 16 16" fill="none" xmlns="http://www.w3.org/2000/svg">
<g id="Frame">
<path id="Vector" d="M8.58781 2.07848L13.5829 5.25981C13.7398 5.35978 13.8691 5.4977 13.9586 5.66083C14.0482 5.82397 14.0952 6.00704 14.0952 6.19314V12.9882C14.0951 13.1337 14.0664 13.2777 14.0106 13.4121C13.9549 13.5464 13.8732 13.6685 13.7702 13.7713C13.6673 13.8741 13.5451 13.9556 13.4107 14.0112C13.2762 14.0668 13.1321 14.0953 12.9867 14.0952H8.56762L8.568 10.6872H7.44571V14.0949L3.01333 14.0952C2.86785 14.0953 2.72378 14.0668 2.58933 14.0112C2.45489 13.9556 2.33271 13.8741 2.22977 13.7713C2.12683 13.6685 2.04515 13.5464 1.98938 13.4121C1.93362 13.2777 1.90486 13.1337 1.90476 12.9882V6.09752C1.90476 5.71429 2.10286 5.35848 2.42895 5.15657L7.408 2.07086C7.58544 1.96097 7.79029 1.9034 7.999 1.90475C8.20771 1.90609 8.4118 1.96631 8.58781 2.07848ZM12.9524 12.9524V6.20648L7.992 3.04762L3.04762 6.11124V12.9524H6.34933V9.56876H9.66476V12.952L12.9524 12.9524Z" fill="var(--fill-0, black)"/>
</g>
</svg>
