<svg width="24" height="24" viewBox="0 0 24 24" fill="none" xmlns="http://www.w3.org/2000/svg">
  <path d="M16.6602 1H16.6631C17.4903 0.997915 18.3127 1.1795 19.084 1.53711H19.0859C19.8298 1.88067 20.5147 2.38434 21.1006 3.02539L21.1016 3.02637C21.6125 3.58424 22.0376 4.23911 22.3564 4.96387L22.4863 5.2793C22.8274 6.16432 23.0025 7.10496 23 8.07617V8.07812C23 8.98854 22.8336 9.95569 22.4902 10.958L22.4893 10.96C22.2049 11.7961 21.7845 12.6803 21.2393 13.5889C20.3764 15.0246 19.1752 16.5461 17.6592 18.1084C15.7691 20.0547 13.8933 21.5496 13.0361 22.2021L12.5557 22.5596L12 22.957L11.4443 22.5596L11.4365 22.5537L11.4287 22.5488L11.3037 22.458C11.223 22.3988 11.1087 22.3137 10.9658 22.2051C10.68 21.9878 10.2799 21.6765 9.80371 21.2852C8.84987 20.5013 7.5968 19.4031 6.34082 18.1084C4.82468 16.5459 3.6226 15.0248 2.75977 13.5889H2.76074C2.21641 12.6818 1.79782 11.7965 1.50977 10.957C1.1665 9.95492 1 8.98836 1 8.07812C1.00002 7.10493 1.17536 6.16355 1.5166 5.27832C1.84459 4.42774 2.31622 3.66369 2.90039 3.02734L2.90234 3.02539C3.49148 2.38136 4.17032 1.88221 4.91699 1.53711H4.91797C5.68971 1.17927 6.50258 1 7.34277 1C8.50548 1.00005 9.64629 1.35506 10.6465 2.03613C11.4592 2.58955 12.5437 2.58955 13.3564 2.03613C14.3567 1.35508 15.4974 1.00002 16.6602 1Z" stroke="#C5C5C5" stroke-width="2"/>
</svg>
