<svg preserveAspectRatio="none" width="100%" height="100%" overflow="visible" style="display: block;" viewBox="0 0 18 18" fill="none" xmlns="http://www.w3.org/2000/svg">
<g id="Frame">
<path id="Vector" d="M10.9279 7.17225C11.22 5.86725 11.424 4.92337 11.5402 4.33875C11.8327 2.86687 11.0732 1.5 9.56775 1.5C8.21025 1.5 7.5285 2.17463 7.1265 3.52312L7.11619 3.5625C6.87487 4.65337 6.50588 5.499 6.01744 6.10406C5.76329 6.41969 5.44324 6.67599 5.0797 6.85503C4.71616 7.03406 4.31789 7.13151 3.91275 7.14056L3.52762 7.14881C2.60925 7.1685 1.875 7.9245 1.875 8.85056V14.4375C1.875 15.5766 2.79094 16.5 3.921 16.5H11.1724C12.6619 16.5 13.9914 15.5584 14.4967 14.1459L16.0031 9.9345C16.3864 8.86294 15.8355 7.68094 14.7726 7.2945C14.5501 7.21361 14.3152 7.17224 14.0784 7.17225H10.9279ZM9.567 2.625C10.257 2.625 10.6129 3.26625 10.4439 4.11787C10.3108 4.78837 10.0575 5.9535 9.68419 7.61006C9.60487 7.962 9.86981 8.29725 10.2276 8.29725H14.0713C14.1786 8.29725 14.2851 8.316 14.3861 8.35294C14.8686 8.52844 15.1187 9.06581 14.9447 9.55294L13.4406 13.7642C13.0954 14.7309 12.1869 15.375 11.1692 15.375H3.92869C3.41569 15.375 3 14.9552 3 14.4375V8.85056C3 8.5365 3.24862 8.28019 3.5595 8.27362L3.94387 8.26537C4.51044 8.25259 5.06737 8.11607 5.57562 7.86538C6.08387 7.61469 6.53115 7.25589 6.88612 6.81412C7.48987 6.06525 7.92581 5.0685 8.20219 3.828C8.47444 2.92387 8.78119 2.625 9.56719 2.625H9.567Z" fill="var(--fill-0, black)"/>
</g>
</svg>
