<svg preserveAspectRatio="none" width="100%" height="100%" overflow="visible" style="display: block;" viewBox="0 0 20 20" fill="none" xmlns="http://www.w3.org/2000/svg">
<g id="Components/Rate-Star/Default">
<path id="Union" d="M9.43349 2.48712C9.58791 2.18032 9.96272 2.0545 10.2714 2.20587C10.3945 2.2661 10.495 2.36471 10.5556 2.48712L12.7733 6.9588L17.7352 7.67559C18.0772 7.72616 18.3154 8.04161 18.2626 8.38165C18.243 8.51749 18.1786 8.64201 18.0809 8.73712L14.4911 12.2176L15.3388 17.1316C15.3974 17.4698 15.169 17.7901 14.829 17.8484C14.6943 17.8717 14.5536 17.8509 14.4325 17.7869L9.99404 15.4666L5.55654 17.7869C5.45347 17.841 5.33686 17.8644 5.2206 17.8563C5.10422 17.848 4.99176 17.8082 4.89736 17.74C4.803 17.6719 4.7303 17.578 4.68642 17.4705C4.64263 17.3631 4.62945 17.2458 4.64931 17.1316L5.49794 12.2176L1.90712 8.73712C1.78828 8.62189 1.72084 8.46368 1.71865 8.29864C1.71657 8.13376 1.77977 7.97446 1.8954 7.85626C1.99116 7.7591 2.117 7.69503 2.2538 7.67559L7.21572 6.9588L9.43349 2.48712Z" fill="var(--fill-0, #FD8E2D)"/>
</g>
</svg>
