<svg preserveAspectRatio="none" width="100%" height="100%" overflow="visible" style="display: block;" viewBox="0 0 20 20" fill="none" xmlns="http://www.w3.org/2000/svg">
<g id="Frame" clip-path="url(#clip0_0_59)">
<path id="Vector" d="M8.5849 14.6397L10.1553 13.0694H13.0357L14.8674 11.2312V5.47676H6.22518V13.0693H8.58492V14.6397H8.5849ZM11.9861 7.56877H13.0357V10.7104H11.9861V7.56877ZM9.10561 7.56877H10.1553V10.7104H9.10561V7.56877ZM10 0C4.47713 0 0 4.47715 0 10C0 15.5229 4.47713 20 10 20C15.5229 20 20 15.5229 20 10C20 4.47715 15.5229 0 10 0ZM15.9171 11.7592L12.7754 14.9009H10.4156L8.84525 16.4714H7.27488V14.9009H4.39443V6.51906L5.18381 4.42707H15.9171V11.7592Z" fill="var(--fill-0, #040000)"/>
</g>
<defs>
<clipPath id="clip0_0_59">
<rect width="20" height="20" fill="white"/>
</clipPath>
</defs>
</svg>
